<svg width="80.000000" height="80.000000" viewBox="0 0 80 80" fill="none" xmlns="http://www.w3.org/2000/svg" xmlns:xlink="http://www.w3.org/1999/xlink">
	<desc>
			Created with Pixso.
	</desc>
	<defs/>
	<path id="Vector" d="M39.99 80C29.32 80 19.26 75.84 11.71 68.28C4.15 60.73 0 50.67 0 39.99C0 29.32 4.15 19.26 11.71 11.71C19.26 4.15 29.32 0 39.99 0C50.67 0 60.73 4.15 68.28 11.71C75.84 19.27 79.99 29.32 79.99 39.99C79.99 50.67 75.84 60.73 68.28 68.28C60.73 75.84 50.67 80 39.99 80ZM39.99 2.39C29.95 2.39 20.51 6.31 13.41 13.41C6.31 20.51 2.39 29.96 2.39 39.99C2.39 50.03 6.31 59.48 13.41 66.58C20.51 73.68 29.95 77.6 39.99 77.6C50.04 77.6 59.48 73.68 66.58 66.58C73.68 59.48 77.6 50.03 77.6 39.99C77.6 29.96 73.68 20.51 66.58 13.41C59.48 6.31 50.04 2.39 39.99 2.39Z" fill="#191919" fill-opacity="1.000000" fill-rule="nonzero"/>
	<path id="Vector" d="M48.18 22.66C48.01 22.51 47.76 22.52 47.61 22.68L44.37 26.18L44.15 25.97L47.39 22.48C47.54 22.31 47.53 22.06 47.37 21.91C47.21 21.76 46.96 21.77 46.8 21.93L43.57 25.43L43.34 25.23L46.58 21.73C46.73 21.57 46.72 21.31 46.56 21.16C46.4 21.02 46.15 21.02 46 21.19L42.76 24.68L42.54 24.48L45.78 20.98C45.93 20.82 45.92 20.57 45.76 20.42C45.6 20.27 45.34 20.28 45.19 20.44L41.95 23.94L41.95 23.94L41.85 24.04C41.76 24.14 41.68 24.24 41.61 24.34L41.6 24.34C41.33 24.71 41.17 25.1 41.17 25.55C41.17 26.03 41.34 26.48 41.65 26.85C41.44 27.07 40.53 27.95 39.43 29.02C38.12 27.62 36.96 26.39 36.72 26.11C37.06 25.74 37.26 25.27 37.29 24.76C37.31 24.28 37.16 23.87 36.89 23.46L36.89 23.46L36.89 23.45C36.82 23.34 36.73 23.24 36.64 23.13L36.54 23.01L36.54 23.01L36.14 22.6C33.95 20.69 32.87 20.52 32.23 21.07C31.48 21.71 31.23 22.82 32.9 25.38L33.27 25.87L33.27 25.87L33.31 25.92C33.76 26.47 34.19 26.77 34.81 26.85C35.29 26.91 35.75 26.81 36.16 26.57C36.4 26.85 37.46 28.24 38.64 29.79C37.01 31.36 35.26 33.06 34.8 33.51C34.48 33.82 34.3 34.02 34.3 34.02C33.99 34.36 34.02 34.88 34.35 35.2C34.69 35.51 35.22 35.49 35.53 35.16C35.53 35.16 35.75 34.92 35.94 34.7L35.94 34.7C36.22 34.37 37.81 32.48 39.31 30.68C40.72 32.53 42.11 34.38 42.38 34.71L42.38 34.71C42.57 34.96 42.79 35.22 42.79 35.22C43.11 35.59 43.66 35.63 44.04 35.32C44.41 35 44.46 34.45 44.15 34.08C44.15 34.08 43.97 33.85 43.65 33.51C43.22 33.04 41.64 31.37 40.1 29.73C41.1 28.53 41.95 27.53 42.15 27.3C42.53 27.55 42.96 27.66 43.41 27.63C44 27.58 44.42 27.31 44.87 26.82L44.91 26.77L44.91 26.77L48.2 23.22C48.35 23.06 48.34 22.81 48.18 22.66Z" fill="#191919" fill-opacity="1.000000" fill-rule="nonzero"/>
	<path id="Vector" d="M28.1 40.37C28.91 40.37 29.63 40.58 30.24 40.98L29.72 42.06C29.44 41.89 29.13 41.75 28.81 41.65C28.48 41.54 28.21 41.49 27.99 41.49C27.59 41.49 27.39 41.62 27.39 41.88C27.39 42.05 27.49 42.19 27.68 42.29C27.88 42.4 28.12 42.48 28.4 42.56C28.68 42.64 28.96 42.73 29.25 42.83C29.53 42.94 29.76 43.11 29.96 43.35C30.16 43.58 30.25 43.88 30.25 44.24C30.25 44.77 30.05 45.17 29.64 45.46C29.24 45.75 28.72 45.9 28.09 45.9C27.64 45.9 27.19 45.82 26.76 45.67C26.32 45.52 25.94 45.3 25.61 45.03L26.15 43.97C26.42 44.21 26.74 44.41 27.11 44.56C27.48 44.71 27.81 44.79 28.1 44.79C28.33 44.79 28.5 44.75 28.62 44.67C28.75 44.59 28.81 44.47 28.81 44.32C28.81 44.17 28.74 44.04 28.59 43.94C28.45 43.84 28.28 43.76 28.07 43.72C27.85 43.66 27.62 43.6 27.38 43.52C27.13 43.44 26.9 43.35 26.68 43.25C26.47 43.15 26.3 42.99 26.16 42.78C26.01 42.56 25.94 42.31 25.94 42.01C25.94 41.51 26.14 41.12 26.54 40.82C26.93 40.52 27.45 40.37 28.1 40.37Z" fill="#191919" fill-opacity="1.000000" fill-rule="nonzero"/>
	<path id="Vector" d="M36.42 40.44L36.42 43.58C36.42 44.29 36.2 44.86 35.75 45.29C35.31 45.71 34.71 45.92 33.95 45.92C33.19 45.92 32.58 45.71 32.13 45.29C31.68 44.86 31.46 44.29 31.46 43.58L31.46 40.44L32.83 40.44L32.83 43.58C32.83 43.94 32.94 44.23 33.14 44.44C33.35 44.66 33.62 44.76 33.96 44.76C34.29 44.76 34.56 44.66 34.75 44.44C34.95 44.23 35.05 43.94 35.05 43.58L35.05 40.44L36.42 40.44Z" fill="#191919" fill-opacity="1.000000" fill-rule="nonzero"/>
	<path id="Vector" d="M37.95 40.44L40.31 40.44C41.01 40.44 41.54 40.6 41.92 40.93C42.3 41.26 42.49 41.72 42.49 42.33C42.49 42.96 42.3 43.45 41.92 43.8C41.54 44.15 41.01 44.33 40.31 44.33L39.33 44.33L39.33 45.85L37.95 45.85L37.95 40.44ZM39.33 41.52L39.33 43.25L40.24 43.25C40.55 43.25 40.78 43.17 40.95 43.02C41.11 42.87 41.2 42.66 41.2 42.37C41.2 42.1 41.11 41.88 40.95 41.74C40.78 41.59 40.55 41.52 40.24 41.52L39.33 41.52Z" fill="#191919" fill-opacity="1.000000" fill-rule="nonzero"/>
	<path id="Vector" d="M48 41.52L45.13 41.52L45.13 42.6L47.72 42.6L47.72 43.68L45.13 43.68L45.13 44.77L48.08 44.77L48.08 45.85L43.76 45.85L43.76 40.44L48 40.44L48 41.52Z" fill="#191919" fill-opacity="1.000000" fill-rule="nonzero"/>
	<path id="Vector" d="M52.78 45.85L51.97 44.33L50.89 44.33L50.89 45.85L49.51 45.85L49.51 40.44L51.94 40.44C52.65 40.44 53.21 40.6 53.6 40.93C53.99 41.26 54.19 41.72 54.19 42.33C54.19 43.16 53.86 43.74 53.2 44.07L54.34 45.85L52.78 45.85ZM50.89 43.25L51.94 43.25C52.23 43.25 52.46 43.17 52.63 43.02C52.8 42.87 52.88 42.66 52.88 42.37C52.88 42.1 52.8 41.88 52.63 41.74C52.46 41.59 52.23 41.52 51.94 41.52L50.89 41.52L50.89 43.25Z" fill="#191919" fill-opacity="1.000000" fill-rule="nonzero"/>
	<path id="Vector" d="M32.24 50.53L29.6 50.53L29.6 51.78L32.03 51.78L32.03 52.86L29.6 52.86L29.6 54.86L28.22 54.86L28.22 49.44L32.24 49.44L32.24 50.53Z" fill="#191919" fill-opacity="1.000000" fill-rule="nonzero"/>
	<path id="Vector" d="M36.01 49.4C36.85 49.4 37.55 49.66 38.1 50.18C38.66 50.71 38.94 51.36 38.94 52.15C38.94 52.94 38.66 53.6 38.1 54.13C37.54 54.66 36.84 54.92 36.01 54.92C35.17 54.92 34.47 54.66 33.92 54.13C33.36 53.6 33.08 52.94 33.08 52.15C33.08 51.36 33.36 50.7 33.92 50.18C34.47 49.66 35.17 49.4 36.01 49.4ZM36.02 50.55C35.6 50.55 35.24 50.7 34.94 51.01C34.64 51.32 34.49 51.7 34.49 52.16C34.49 52.61 34.64 52.99 34.94 53.3C35.24 53.61 35.6 53.77 36.02 53.77C36.44 53.77 36.79 53.61 37.09 53.3C37.38 52.99 37.53 52.61 37.53 52.16C37.53 51.7 37.38 51.32 37.09 51.01C36.79 50.7 36.44 50.55 36.02 50.55Z" fill="#191919" fill-opacity="1.000000" fill-rule="nonzero"/>
	<path id="Vector" d="M42.78 49.4C43.62 49.4 44.32 49.66 44.87 50.18C45.43 50.71 45.71 51.36 45.71 52.15C45.71 52.94 45.43 53.6 44.87 54.13C44.31 54.66 43.61 54.92 42.78 54.92C41.94 54.92 41.24 54.66 40.69 54.13C40.13 53.6 39.85 52.94 39.85 52.15C39.85 51.36 40.13 50.7 40.69 50.18C41.24 49.66 41.94 49.4 42.78 49.4ZM42.79 50.55C42.37 50.55 42.01 50.7 41.71 51.01C41.41 51.32 41.26 51.7 41.26 52.16C41.26 52.61 41.41 52.99 41.71 53.3C42.01 53.61 42.37 53.77 42.79 53.77C43.21 53.77 43.57 53.61 43.86 53.3C44.15 52.99 44.3 52.61 44.3 52.16C44.3 51.7 44.15 51.32 43.86 51.01C43.57 50.7 43.21 50.55 42.79 50.55Z" fill="#191919" fill-opacity="1.000000" fill-rule="nonzero"/>
	<path id="Vector" d="M46.98 49.44L49.31 49.44C50.16 49.44 50.85 49.69 51.39 50.2C51.92 50.7 52.19 51.35 52.19 52.15C52.19 52.95 51.92 53.6 51.37 54.11C50.83 54.61 50.13 54.86 49.26 54.86L46.98 54.86L46.98 49.44ZM48.36 50.54L48.36 53.76L49.34 53.76C49.76 53.76 50.11 53.61 50.38 53.32C50.65 53.02 50.79 52.64 50.79 52.16C50.79 51.69 50.64 51.3 50.36 51C50.08 50.69 49.72 50.54 49.28 50.54L48.36 50.54Z" fill="#191919" fill-opacity="1.000000" fill-rule="nonzero"/>
	<path id="Vector" d="M32.76 59.5C33.05 59.5 33.31 59.57 33.54 59.73L33.39 60.06C33.16 59.92 32.94 59.85 32.73 59.85C32.62 59.85 32.53 59.87 32.46 59.91C32.4 59.95 32.37 60.01 32.37 60.08C32.37 60.16 32.4 60.22 32.46 60.28C32.52 60.33 32.59 60.36 32.68 60.39C32.77 60.41 32.87 60.45 32.97 60.48C33.08 60.52 33.17 60.56 33.26 60.6C33.35 60.64 33.43 60.71 33.48 60.8C33.54 60.89 33.57 60.99 33.57 61.12C33.57 61.32 33.49 61.47 33.33 61.59C33.18 61.71 32.98 61.76 32.73 61.76C32.56 61.76 32.39 61.73 32.23 61.67C32.07 61.6 31.93 61.52 31.81 61.41L31.98 61.08C32.09 61.19 32.21 61.27 32.35 61.33C32.48 61.38 32.61 61.41 32.73 61.41C32.87 61.41 32.97 61.39 33.04 61.34C33.12 61.29 33.16 61.22 33.16 61.14C33.16 61.06 33.12 61 33.06 60.94C33 60.89 32.93 60.85 32.84 60.83C32.75 60.81 32.65 60.78 32.55 60.74C32.44 60.7 32.35 60.67 32.25 60.63C32.16 60.59 32.09 60.52 32.03 60.44C31.97 60.35 31.94 60.24 31.94 60.12C31.94 59.93 32.02 59.78 32.17 59.67C32.32 59.55 32.51 59.5 32.76 59.5Z" fill="#191919" fill-opacity="1.000000" fill-rule="nonzero"/>
	<path id="Vector" d="M35.84 59.85L34.62 59.85L34.62 60.46L35.71 60.46L35.71 60.79L34.62 60.79L34.62 61.41L35.88 61.41L35.88 61.75L34.24 61.75L34.24 59.51L35.84 59.51L35.84 59.85Z" fill="#191919" fill-opacity="1.000000" fill-rule="nonzero"/>
	<path id="Vector" d="M36.94 61.75L36.57 61.75L36.57 59.51L36.94 59.51L36.94 61.75Z" fill="#191919" fill-opacity="1.000000" fill-rule="nonzero"/>
	<path id="Vector" d="M39.29 59.85L38.57 59.85L38.57 61.75L38.2 61.75L38.2 59.85L37.49 59.85L37.49 59.51L39.29 59.51L39.29 59.85Z" fill="#191919" fill-opacity="1.000000" fill-rule="nonzero"/>
	<path id="Vector" d="M41.45 61.75L41.07 61.75L41.07 59.85L40.63 59.85L40.63 59.51L41.45 59.51L41.45 61.75Z" fill="#191919" fill-opacity="1.000000" fill-rule="nonzero"/>
	<path id="Vector" d="M42.92 61.77C42.68 61.77 42.45 61.71 42.25 61.6L42.4 61.31C42.54 61.41 42.71 61.46 42.9 61.46C43.11 61.46 43.27 61.38 43.37 61.24C43.48 61.09 43.53 60.89 43.52 60.64C43.4 60.85 43.2 60.96 42.91 60.96C42.68 60.96 42.51 60.9 42.38 60.77C42.25 60.64 42.19 60.46 42.19 60.25C42.19 60.02 42.26 59.83 42.4 59.7C42.54 59.56 42.74 59.5 42.98 59.5C43.26 59.5 43.48 59.59 43.64 59.78C43.81 59.98 43.89 60.24 43.89 60.58C43.89 60.94 43.8 61.23 43.63 61.45C43.45 61.66 43.22 61.77 42.92 61.77ZM42.98 60.66C43.13 60.66 43.24 60.62 43.33 60.54C43.42 60.46 43.46 60.36 43.46 60.24C43.46 60.13 43.42 60.03 43.34 59.95C43.26 59.87 43.15 59.82 43 59.82C42.86 59.82 42.75 59.86 42.66 59.93C42.58 60.01 42.54 60.12 42.54 60.25C42.54 60.38 42.58 60.48 42.66 60.56C42.74 60.63 42.84 60.66 42.98 60.66Z" fill="#191919" fill-opacity="1.000000" fill-rule="nonzero"/>
	<path id="Vector" d="M45.12 61.77C44.87 61.77 44.65 61.71 44.45 61.6L44.59 61.31C44.74 61.41 44.9 61.46 45.09 61.46C45.3 61.46 45.46 61.38 45.57 61.24C45.67 61.09 45.72 60.89 45.71 60.64C45.6 60.85 45.39 60.96 45.1 60.96C44.88 60.96 44.7 60.9 44.57 60.77C44.44 60.64 44.38 60.46 44.38 60.25C44.38 60.02 44.45 59.83 44.59 59.7C44.74 59.56 44.93 59.5 45.17 59.5C45.45 59.5 45.67 59.59 45.84 59.78C46 59.98 46.08 60.24 46.08 60.58C46.08 60.94 46 61.23 45.82 61.45C45.64 61.66 45.41 61.77 45.12 61.77ZM45.17 60.66C45.32 60.66 45.44 60.62 45.52 60.54C45.61 60.46 45.66 60.36 45.65 60.24C45.66 60.13 45.62 60.03 45.54 59.95C45.46 59.87 45.34 59.82 45.19 59.82C45.05 59.82 44.94 59.86 44.86 59.93C44.78 60.01 44.74 60.12 44.74 60.25C44.74 60.38 44.77 60.48 44.85 60.56C44.93 60.63 45.04 60.66 45.17 60.66Z" fill="#191919" fill-opacity="1.000000" fill-rule="nonzero"/>
	<path id="Vector" d="M47.36 59.5C47.58 59.5 47.75 59.55 47.88 59.65C48.01 59.75 48.08 59.89 48.08 60.06C48.08 60.25 47.94 60.5 47.67 60.79L47.08 61.41L48.18 61.41L48.18 61.75L46.59 61.75L46.59 61.48L47.41 60.59C47.59 60.4 47.68 60.24 47.68 60.11C47.68 60.02 47.65 59.95 47.58 59.9C47.52 59.85 47.42 59.83 47.31 59.83C47.1 59.83 46.9 59.92 46.7 60.1L46.54 59.81C46.81 59.6 47.08 59.5 47.36 59.5Z" fill="#191919" fill-opacity="1.000000" fill-rule="nonzero"/>
</svg>
