<svg width="100.000000" height="101.000000" viewBox="0 0 100 101" fill="none" xmlns="http://www.w3.org/2000/svg" xmlns:xlink="http://www.w3.org/1999/xlink">
	<desc>
			Created with Pixso.
	</desc>
	<defs/>
	<path id="Vector" d="M49.5 100C21.92 100 -0.5 77.57 -0.5 50C-0.5 22.43 21.92 0 49.5 0C77.07 0 99.5 22.43 99.5 50C99.5 77.57 77.06 100 49.5 100ZM49.5 0.98C22.47 0.98 0.47 22.97 0.47 50C0.47 77.03 22.47 99.02 49.5 99.02C76.53 99.02 98.51 77.03 98.51 50C98.51 22.97 76.53 0.98 49.5 0.98ZM49.5 89.9C27.49 89.9 9.6 72 9.6 50C9.6 28 27.49 10.1 49.5 10.1C71.5 10.1 89.39 28 89.39 50C89.39 72 71.49 89.9 49.5 89.9ZM49.5 11.08C28.04 11.08 10.58 28.54 10.58 50C10.58 71.46 28.04 88.91 49.5 88.91C70.96 88.91 88.41 71.45 88.41 50C88.41 28.54 70.95 11.08 49.5 11.08ZM49.5 79.79C48.52 79.79 47.55 79.74 46.58 79.65C45.6 79.55 44.64 79.41 43.68 79.22C42.73 79.03 41.78 78.79 40.85 78.51C39.91 78.23 39 77.9 38.09 77.52C37.19 77.15 36.31 76.73 35.45 76.27C34.59 75.81 33.75 75.31 32.94 74.77C32.13 74.23 31.35 73.65 30.59 73.03C29.84 72.41 29.12 71.75 28.43 71.06C27.74 70.37 27.08 69.65 26.46 68.9C25.84 68.15 25.26 67.36 24.72 66.55C24.18 65.74 23.68 64.9 23.22 64.04C22.76 63.18 22.34 62.3 21.97 61.4C21.59 60.5 21.26 59.58 20.98 58.65C20.7 57.71 20.46 56.77 20.27 55.81C20.08 54.85 19.94 53.89 19.84 52.92C19.75 51.95 19.7 50.97 19.7 50C19.7 49.02 19.75 48.05 19.84 47.08C19.94 46.1 20.08 45.14 20.27 44.18C20.46 43.23 20.7 42.28 20.98 41.35C21.26 40.41 21.59 39.5 21.96 38.59C22.34 37.69 22.76 36.81 23.22 35.95C23.68 35.09 24.18 34.25 24.72 33.44C25.26 32.63 25.84 31.85 26.46 31.09C27.08 30.34 27.74 29.62 28.43 28.93C29.12 28.24 29.84 27.58 30.59 26.97C31.34 26.35 32.13 25.76 32.94 25.22C33.75 24.68 34.59 24.18 35.45 23.72C36.31 23.26 37.19 22.84 38.09 22.47C38.99 22.1 39.91 21.77 40.84 21.48C41.78 21.2 42.72 20.97 43.68 20.78C44.64 20.58 45.6 20.44 46.57 20.35C47.54 20.25 48.52 20.2 49.49 20.2C50.47 20.2 51.44 20.25 52.41 20.35C53.39 20.44 54.35 20.58 55.31 20.77C56.26 20.97 57.21 21.2 58.14 21.48C59.08 21.77 59.99 22.1 60.9 22.47C61.8 22.84 62.68 23.26 63.54 23.72C64.4 24.18 65.24 24.68 66.05 25.22C66.86 25.76 67.64 26.35 68.4 26.97C69.15 27.58 69.87 28.24 70.56 28.93C71.25 29.62 71.91 30.34 72.53 31.09C73.14 31.85 73.73 32.63 74.27 33.44C74.81 34.26 75.31 35.09 75.77 35.95C76.23 36.81 76.65 37.69 77.02 38.59C77.39 39.5 77.72 40.41 78.01 41.35C78.29 42.28 78.52 43.23 78.71 44.19C78.91 45.14 79.05 46.11 79.14 47.08C79.24 48.05 79.29 49.02 79.29 50C79.29 50.97 79.24 51.95 79.14 52.92C79.05 53.89 78.9 54.85 78.71 55.81C78.52 56.77 78.28 57.71 78 58.64C77.71 59.58 77.38 60.49 77.01 61.4C76.64 62.3 76.22 63.18 75.76 64.04C75.3 64.9 74.8 65.73 74.26 66.54C73.71 67.35 73.13 68.13 72.51 68.89C71.9 69.64 71.24 70.37 70.55 71.05C69.86 71.74 69.14 72.4 68.39 73.02C67.63 73.64 66.85 74.22 66.04 74.76C65.23 75.3 64.39 75.8 63.53 76.26C62.67 76.72 61.79 77.14 60.89 77.51C59.99 77.89 59.07 78.22 58.14 78.5C57.21 78.79 56.26 79.02 55.3 79.21C54.35 79.4 53.39 79.55 52.41 79.64C51.45 79.74 50.47 79.79 49.5 79.79ZM49.5 21.19C48.55 21.19 47.61 21.23 46.67 21.32C45.73 21.42 44.8 21.55 43.88 21.74C42.95 21.92 42.03 22.15 41.13 22.43C40.23 22.7 39.34 23.02 38.47 23.38C37.6 23.74 36.75 24.14 35.91 24.59C35.08 25.03 34.27 25.52 33.49 26.04C32.7 26.57 31.95 27.13 31.21 27.73C30.49 28.32 29.79 28.96 29.12 29.62C28.45 30.29 27.82 30.99 27.22 31.72C26.62 32.45 26.06 33.21 25.54 33.99C25.01 34.77 24.53 35.58 24.08 36.41C23.64 37.25 23.24 38.1 22.87 38.97C22.51 39.84 22.19 40.73 21.92 41.63C21.65 42.54 21.42 43.45 21.23 44.38C21.05 45.3 20.91 46.23 20.82 47.17C20.73 48.11 20.68 49.06 20.68 50C20.68 50.94 20.73 51.88 20.82 52.82C20.91 53.76 21.05 54.7 21.23 55.62C21.42 56.54 21.65 57.46 21.92 58.36C22.19 59.27 22.51 60.15 22.87 61.03C23.23 61.9 23.64 62.75 24.08 63.58C24.53 64.41 25.01 65.22 25.54 66.01C26.06 66.79 26.62 67.55 27.22 68.28C27.82 69.01 28.45 69.71 29.12 70.37C29.79 71.04 30.49 71.67 31.21 72.27C31.94 72.87 32.7 73.43 33.49 73.95C34.27 74.48 35.08 74.97 35.91 75.41C36.74 75.86 37.59 76.26 38.47 76.62C39.34 76.98 40.23 77.3 41.13 77.57C42.03 77.85 42.95 78.07 43.87 78.26C44.8 78.44 45.73 78.58 46.67 78.67C47.61 78.76 48.55 78.81 49.49 78.81C50.44 78.81 51.38 78.76 52.32 78.67C53.26 78.58 54.19 78.44 55.11 78.26C56.04 78.07 56.96 77.85 57.86 77.57C58.76 77.3 59.65 76.98 60.52 76.62C61.39 76.26 62.24 75.86 63.08 75.41C63.91 74.97 64.72 74.48 65.5 73.96C66.29 73.43 67.04 72.87 67.77 72.27C68.5 71.67 69.2 71.04 69.87 70.37C70.54 69.71 71.17 69.01 71.77 68.28C72.37 67.55 72.93 66.79 73.45 66.01C73.98 65.22 74.46 64.41 74.91 63.58C75.35 62.75 75.75 61.9 76.11 61.03C76.48 60.15 76.79 59.27 77.07 58.36C77.34 57.46 77.57 56.54 77.75 55.62C77.94 54.7 78.08 53.76 78.17 52.82C78.26 51.88 78.31 50.94 78.31 50C78.31 49.06 78.26 48.11 78.16 47.17C78.07 46.24 77.93 45.31 77.75 44.38C77.56 43.45 77.33 42.54 77.06 41.64C76.79 40.74 76.47 39.85 76.11 38.98C75.74 38.11 75.34 37.26 74.89 36.42C74.45 35.59 73.96 34.78 73.44 34C72.92 33.21 72.36 32.46 71.76 31.73C71.16 31 70.53 30.3 69.86 29.63C69.19 28.97 68.49 28.33 67.76 27.74C67.04 27.14 66.28 26.58 65.49 26.05C64.71 25.53 63.9 25.04 63.07 24.6C62.24 24.15 61.39 23.75 60.52 23.39C59.65 23.03 58.76 22.71 57.86 22.43C56.95 22.16 56.04 21.93 55.11 21.74C54.19 21.56 53.26 21.42 52.32 21.33C51.38 21.23 50.44 21.19 49.5 21.19ZM49.5 69.69C48.85 69.69 48.21 69.66 47.57 69.59C46.92 69.53 46.29 69.43 45.65 69.31C45.02 69.18 44.4 69.03 43.78 68.84C43.16 68.65 42.56 68.43 41.96 68.19C41.37 67.94 40.78 67.67 40.21 67.36C39.64 67.06 39.09 66.73 38.56 66.37C38.02 66.01 37.5 65.63 37 65.22C36.51 64.81 36.03 64.37 35.57 63.92C35.12 63.46 34.68 62.99 34.27 62.49C33.87 61.99 33.48 61.47 33.12 60.93C32.76 60.4 32.43 59.85 32.13 59.28C31.82 58.71 31.55 58.13 31.3 57.53C31.06 56.93 30.84 56.33 30.65 55.71C30.46 55.09 30.31 54.47 30.18 53.84C30.06 53.21 29.96 52.57 29.9 51.93C29.83 51.28 29.8 50.64 29.8 50C29.8 49.35 29.83 48.71 29.9 48.07C29.96 47.42 30.06 46.79 30.18 46.15C30.31 45.52 30.46 44.9 30.65 44.28C30.84 43.66 31.06 43.06 31.3 42.46C31.55 41.87 31.82 41.28 32.13 40.71C32.43 40.15 32.76 39.59 33.12 39.06C33.48 38.52 33.86 38 34.27 37.51C34.68 37.01 35.12 36.53 35.57 36.07C36.03 35.62 36.5 35.19 37 34.78C37.5 34.37 38.02 33.98 38.55 33.62C39.09 33.27 39.64 32.94 40.21 32.63C40.78 32.33 41.36 32.05 41.96 31.81C42.56 31.56 43.16 31.34 43.78 31.15C44.39 30.97 45.02 30.81 45.65 30.68C46.28 30.56 46.92 30.46 47.56 30.4C48.21 30.34 48.85 30.31 49.49 30.31C50.14 30.31 50.78 30.34 51.42 30.4C52.07 30.46 52.7 30.56 53.34 30.68C53.97 30.81 54.59 30.97 55.21 31.15C55.83 31.34 56.43 31.56 57.03 31.81C57.62 32.05 58.21 32.33 58.78 32.63C59.34 32.94 59.9 33.27 60.43 33.62C60.97 33.98 61.49 34.37 61.98 34.77C62.48 35.19 62.96 35.62 63.42 36.07C63.87 36.53 64.3 37.01 64.71 37.51C65.12 38 65.51 38.52 65.86 39.06C66.22 39.59 66.55 40.15 66.86 40.71C67.16 41.28 67.44 41.87 67.68 42.46C67.93 43.06 68.15 43.66 68.33 44.28C68.52 44.9 68.68 45.52 68.8 46.16C68.93 46.79 69.03 47.43 69.09 48.07C69.15 48.71 69.18 49.35 69.18 50C69.18 50.64 69.15 51.29 69.09 51.93C69.02 52.57 68.93 53.21 68.8 53.84C68.68 54.47 68.52 55.09 68.33 55.71C68.14 56.33 67.93 56.93 67.68 57.53C67.43 58.12 67.16 58.71 66.85 59.28C66.55 59.84 66.22 60.4 65.86 60.93C65.5 61.47 65.12 61.98 64.71 62.48C64.3 62.98 63.87 63.46 63.41 63.91C62.96 64.37 62.48 64.8 61.98 65.21C61.48 65.62 60.96 66 60.43 66.36C59.89 66.72 59.34 67.05 58.77 67.35C58.2 67.66 57.62 67.93 57.03 68.18C56.43 68.43 55.83 68.65 55.21 68.83C54.59 69.02 53.97 69.18 53.34 69.3C52.7 69.43 52.07 69.53 51.42 69.59C50.78 69.65 50.14 69.68 49.5 69.69ZM49.5 31.29C48.88 31.29 48.27 31.32 47.66 31.38C47.05 31.44 46.45 31.53 45.85 31.65C45.25 31.77 44.65 31.92 44.07 32.09C43.48 32.27 42.9 32.48 42.34 32.71C41.77 32.95 41.22 33.21 40.67 33.5C40.14 33.79 39.61 34.1 39.1 34.44C38.59 34.78 38.1 35.15 37.63 35.54C37.15 35.93 36.7 36.34 36.27 36.77C35.83 37.2 35.42 37.66 35.03 38.13C34.64 38.6 34.28 39.09 33.94 39.6C33.6 40.12 33.29 40.64 33 41.18C32.71 41.72 32.44 42.27 32.21 42.84C31.98 43.4 31.77 43.98 31.59 44.57C31.41 45.15 31.26 45.75 31.14 46.35C31.02 46.95 30.94 47.56 30.88 48.16C30.82 48.77 30.79 49.39 30.79 50C30.79 50.61 30.82 51.22 30.88 51.83C30.94 52.44 31.02 53.05 31.14 53.65C31.26 54.25 31.41 54.84 31.59 55.43C31.77 56.02 31.98 56.59 32.21 57.16C32.44 57.72 32.7 58.28 32.99 58.82C33.28 59.36 33.6 59.88 33.94 60.39C34.28 60.9 34.64 61.39 35.03 61.87C35.42 62.34 35.83 62.79 36.26 63.23C36.7 63.66 37.15 64.07 37.63 64.46C38.1 64.85 38.59 65.21 39.1 65.55C39.61 65.9 40.13 66.21 40.67 66.5C41.21 66.79 41.77 67.05 42.33 67.28C42.9 67.52 43.48 67.72 44.06 67.9C44.65 68.08 45.24 68.23 45.84 68.35C46.45 68.47 47.05 68.56 47.66 68.62C48.27 68.68 48.88 68.71 49.49 68.71C50.11 68.71 50.72 68.68 51.33 68.62C51.94 68.56 52.54 68.47 53.14 68.35C53.75 68.23 54.34 68.08 54.92 67.9C55.51 67.72 56.09 67.52 56.65 67.28C57.22 67.05 57.77 66.79 58.31 66.5C58.85 66.21 59.38 65.9 59.89 65.55C60.4 65.21 60.89 64.85 61.36 64.46C61.84 64.07 62.29 63.66 62.72 63.23C63.16 62.79 63.57 62.34 63.96 61.87C64.34 61.39 64.71 60.9 65.05 60.39C65.39 59.88 65.71 59.36 65.99 58.82C66.28 58.28 66.54 57.72 66.78 57.16C67.01 56.59 67.22 56.02 67.4 55.43C67.58 54.84 67.72 54.25 67.84 53.65C67.96 53.05 68.05 52.44 68.11 51.83C68.17 51.22 68.2 50.61 68.2 50C68.2 49.39 68.17 48.78 68.11 48.16C68.05 47.56 67.96 46.95 67.84 46.35C67.72 45.75 67.57 45.16 67.39 44.57C67.21 43.99 67.01 43.41 66.77 42.84C66.54 42.28 66.28 41.72 65.99 41.18C65.7 40.64 65.38 40.12 65.04 39.61C64.7 39.1 64.34 38.61 63.95 38.14C63.56 37.66 63.15 37.21 62.72 36.78C62.28 36.34 61.83 35.93 61.36 35.54C60.88 35.15 60.39 34.79 59.88 34.45C59.37 34.11 58.85 33.8 58.31 33.51C57.77 33.22 57.22 32.95 56.65 32.72C56.09 32.49 55.51 32.28 54.92 32.1C54.34 31.92 53.75 31.77 53.14 31.65C52.54 31.53 51.94 31.44 51.33 31.38C50.72 31.32 50.11 31.29 49.5 31.29ZM49.5 59.58C48.87 59.58 48.24 59.52 47.62 59.4C47.01 59.28 46.41 59.09 45.83 58.85C45.25 58.61 44.69 58.32 44.17 57.97C43.65 57.62 43.16 57.22 42.72 56.78C42.27 56.33 41.88 55.85 41.53 55.32C41.18 54.8 40.88 54.25 40.64 53.67C40.4 53.09 40.22 52.48 40.09 51.87C39.97 51.25 39.91 50.63 39.91 50C39.91 49.37 39.97 48.75 40.09 48.13C40.22 47.51 40.4 46.91 40.64 46.33C40.88 45.75 41.18 45.2 41.53 44.67C41.88 44.15 42.27 43.67 42.72 43.22C43.16 42.78 43.65 42.38 44.17 42.03C44.69 41.68 45.25 41.38 45.83 41.14C46.41 40.9 47.01 40.72 47.62 40.6C48.24 40.47 48.87 40.41 49.5 40.41C50.12 40.41 50.75 40.47 51.37 40.6C51.98 40.72 52.58 40.9 53.16 41.14C53.75 41.38 54.3 41.68 54.82 42.03C55.34 42.38 55.83 42.78 56.27 43.22C56.72 43.67 57.12 44.15 57.47 44.67C57.82 45.2 58.11 45.75 58.35 46.33C58.59 46.91 58.77 47.51 58.9 48.13C59.02 48.75 59.08 49.37 59.08 50C59.08 50.63 59.02 51.25 58.9 51.87C58.77 52.48 58.59 53.08 58.35 53.66C58.11 54.25 57.81 54.8 57.46 55.32C57.11 55.84 56.72 56.33 56.27 56.77C55.83 57.22 55.34 57.61 54.82 57.97C54.3 58.31 53.75 58.61 53.16 58.85C52.58 59.09 51.98 59.27 51.37 59.4C50.75 59.52 50.12 59.58 49.5 59.58ZM49.5 41.4C48.93 41.4 48.37 41.45 47.82 41.56C47.26 41.67 46.73 41.83 46.2 42.05C45.68 42.27 45.19 42.53 44.72 42.84C44.25 43.16 43.81 43.52 43.41 43.91C43.01 44.32 42.66 44.75 42.34 45.22C42.03 45.69 41.76 46.19 41.55 46.71C41.33 47.23 41.17 47.77 41.06 48.32C40.95 48.88 40.89 49.43 40.89 50C40.89 50.56 40.95 51.12 41.06 51.68C41.17 52.23 41.33 52.77 41.55 53.29C41.76 53.81 42.03 54.31 42.34 54.78C42.66 55.25 43.01 55.68 43.41 56.08C43.81 56.48 44.25 56.84 44.72 57.15C45.19 57.47 45.68 57.73 46.2 57.95C46.73 58.16 47.26 58.33 47.82 58.44C48.37 58.55 48.93 58.6 49.5 58.6C50.06 58.6 50.62 58.55 51.17 58.44C51.73 58.33 52.27 58.16 52.79 57.95C53.31 57.73 53.81 57.47 54.28 57.15C54.75 56.84 55.18 56.48 55.58 56.08C55.98 55.68 56.34 55.25 56.65 54.78C56.96 54.31 57.23 53.81 57.45 53.29C57.66 52.77 57.82 52.23 57.93 51.68C58.04 51.12 58.1 50.56 58.1 50C58.1 49.43 58.04 48.88 57.93 48.32C57.82 47.77 57.66 47.23 57.44 46.71C57.23 46.19 56.96 45.69 56.65 45.22C56.33 44.75 55.98 44.32 55.58 43.92C55.18 43.52 54.75 43.16 54.27 42.85C53.8 42.53 53.31 42.27 52.79 42.05C52.27 41.84 51.73 41.67 51.17 41.56C50.62 41.45 50.06 41.4 49.5 41.4Z" fill="#191919" fill-opacity="1.000000" fill-rule="nonzero"/>
</svg>
