<svg width="80.000000" height="79.000000" viewBox="0 0 80 79" fill="none" xmlns="http://www.w3.org/2000/svg" xmlns:xlink="http://www.w3.org/1999/xlink">
	<desc>
			Created with Pixso.
	</desc>
	<defs/>
	<path id="Vector" d="M80 31.16C80 13.98 66.02 0 48.85 0C47.66 0 46.47 0.06 45.28 0.2C44.1 0.34 42.93 0.54 41.76 0.81C40.6 1.09 39.46 1.42 38.34 1.83C37.22 2.23 36.12 2.7 35.05 3.23C33.98 3.75 32.95 4.34 31.95 4.99C30.95 5.64 29.98 6.34 29.06 7.1C28.14 7.86 27.27 8.67 26.44 9.53C25.62 10.39 24.84 11.29 24.12 12.24C20.66 14.3 17.71 16.93 15.26 20.12C14.11 20.81 13 21.57 11.94 22.4C10.88 23.23 9.88 24.12 8.93 25.08C7.99 26.04 7.11 27.06 6.3 28.13C5.49 29.21 4.75 30.33 4.08 31.5C3.42 32.67 2.83 33.88 2.32 35.12C1.81 36.37 1.38 37.64 1.04 38.94C0.69 40.24 0.43 41.56 0.26 42.9C0.08 44.23 0 45.57 0 46.92C0 64.1 13.97 78.08 31.14 78.08C32.33 78.08 33.52 78.01 34.71 77.87C35.89 77.74 37.06 77.53 38.23 77.26C39.39 76.99 40.53 76.65 41.65 76.25C42.77 75.84 43.87 75.38 44.94 74.85C46.01 74.32 47.04 73.73 48.04 73.08C49.04 72.43 50.01 71.73 50.93 70.97C51.85 70.21 52.72 69.4 53.55 68.54C54.37 67.69 55.15 66.78 55.87 65.83C59.33 63.77 62.28 61.15 64.73 57.95C65.88 57.27 66.99 56.51 68.05 55.68C69.11 54.85 70.11 53.95 71.06 52.99C72 52.03 72.88 51.01 73.69 49.94C74.5 48.87 75.24 47.75 75.91 46.58C76.57 45.41 77.16 44.2 77.67 42.95C78.18 41.71 78.61 40.43 78.95 39.13C79.3 37.83 79.56 36.51 79.73 35.18C79.91 33.84 79.99 32.5 80 31.16ZM22.94 13.89C22.16 15.05 21.47 16.25 20.86 17.51C19.55 17.97 18.27 18.51 17.03 19.14C18.77 17.13 20.74 15.38 22.94 13.89ZM48.84 61.56C32.08 61.56 18.45 47.92 18.45 31.15C18.45 28.9 18.7 26.67 19.2 24.47C19.69 22.27 20.43 20.15 21.4 18.12C24.56 17.04 27.81 16.51 31.14 16.52C47.9 16.52 61.53 30.15 61.53 46.92C61.53 49.17 61.29 51.4 60.79 53.6C60.29 55.8 59.56 57.92 58.59 59.96C55.43 61.03 52.18 61.56 48.85 61.56L48.84 61.56ZM58.1 60.9C57.31 62.43 56.39 63.88 55.35 65.25C53.02 66.63 50.56 67.67 47.95 68.38C45.34 69.09 42.69 69.44 39.98 69.44C23.23 69.44 9.59 55.8 9.59 39.03C9.59 37.39 9.72 35.75 9.99 34.13C10.25 32.51 10.65 30.92 11.17 29.36C11.7 27.8 12.34 26.29 13.11 24.84C13.89 23.39 14.77 22.01 15.76 20.7C17.24 19.83 18.78 19.08 20.39 18.48C18.59 22.51 17.69 26.73 17.69 31.15C17.69 48.33 31.66 62.31 48.84 62.31C52 62.32 55.09 61.85 58.12 60.91L58.1 60.9ZM62.28 46.91C62.28 29.73 48.3 15.75 31.13 15.75C27.97 15.75 24.88 16.22 21.87 17.16C22.66 15.64 23.58 14.18 24.62 12.81C26.95 11.44 29.41 10.4 32.02 9.69C34.63 8.98 37.28 8.63 39.98 8.63C56.74 8.63 70.37 22.27 70.37 39.03C70.38 40.67 70.25 42.31 69.98 43.93C69.71 45.56 69.32 47.15 68.8 48.71C68.27 50.27 67.62 51.77 66.86 53.23C66.09 54.68 65.2 56.06 64.21 57.37C62.73 58.24 61.18 58.98 59.58 59.59C61.38 55.56 62.29 51.34 62.29 46.92L62.28 46.91ZM31.14 77.32C14.38 77.32 0.75 63.68 0.75 46.92C0.75 45.68 0.83 44.45 0.98 43.22C1.13 42 1.35 40.79 1.65 39.59C1.95 38.39 2.32 37.21 2.76 36.06C3.2 34.9 3.71 33.78 4.29 32.68C4.87 31.59 5.51 30.54 6.22 29.53C6.93 28.51 7.7 27.55 8.52 26.63C9.34 25.71 10.22 24.84 11.15 24.03C12.08 23.22 13.06 22.46 14.08 21.77C12.37 24.32 11.07 27.07 10.18 30.01C9.29 32.95 8.85 35.96 8.85 39.04C8.85 56.22 22.82 70.2 40 70.2C42.45 70.2 44.87 69.92 47.25 69.34C49.63 68.77 51.92 67.93 54.1 66.81C53.39 67.63 52.64 68.42 51.85 69.16C51.05 69.9 50.22 70.6 49.36 71.25C48.49 71.9 47.58 72.5 46.65 73.06C45.72 73.62 44.76 74.12 43.77 74.57C42.78 75.02 41.77 75.42 40.74 75.76C39.71 76.11 38.67 76.4 37.61 76.63C36.54 76.86 35.47 77.03 34.39 77.15C33.31 77.26 32.23 77.32 31.14 77.32ZM57.04 64.18C57.82 63.03 58.51 61.82 59.12 60.57C60.44 60.11 61.71 59.56 62.96 58.93C61.22 60.94 59.25 62.69 57.05 64.18L57.04 64.18ZM65.9 56.3C67.61 53.75 68.91 51 69.8 48.06C70.69 45.12 71.13 42.11 71.13 39.04C71.13 21.85 57.16 7.88 39.98 7.88C37.53 7.87 35.12 8.16 32.73 8.73C30.34 9.3 28.06 10.15 25.88 11.26C26.59 10.44 27.34 9.66 28.13 8.92C28.93 8.17 29.76 7.48 30.63 6.82C31.5 6.17 32.4 5.57 33.33 5.01C34.27 4.46 35.23 3.95 36.22 3.5C37.21 3.05 38.22 2.65 39.25 2.31C40.28 1.96 41.32 1.68 42.38 1.44C43.45 1.22 44.52 1.04 45.6 0.93C46.68 0.81 47.76 0.75 48.85 0.75C65.6 0.75 79.24 14.39 79.24 31.16C79.24 32.39 79.16 33.62 79.01 34.85C78.86 36.08 78.64 37.29 78.34 38.49C78.04 39.69 77.67 40.86 77.23 42.02C76.79 43.17 76.28 44.3 75.7 45.39C75.12 46.48 74.48 47.53 73.77 48.55C73.06 49.56 72.29 50.53 71.47 51.45C70.65 52.37 69.77 53.23 68.84 54.05C67.91 54.86 66.93 55.61 65.91 56.3L65.9 56.3Z" fill="#191919" fill-opacity="1.000000" fill-rule="nonzero"/>
</svg>
