<svg width="98.000000" height="80.000000" viewBox="0 0 98 80" fill="none" xmlns="http://www.w3.org/2000/svg" xmlns:xlink="http://www.w3.org/1999/xlink">
	<desc>
			Created with Pixso.
	</desc>
	<defs/>
	<path id="Vector" d="M4.41 64.26L-0.02 79.78L1.51 79.78L2.62 75.84L8.23 75.84L9.33 79.78L10.86 79.78L6.44 64.26L4.41 64.26ZM5.41 65.82L7.85 74.56L2.97 74.56L5.41 65.82Z" fill="#191919" fill-opacity="1.000000" fill-rule="nonzero"/>
	<path id="Vector" d="M17.46 64.03L16.08 64.03L16.08 76.83L15.96 79.78L17.1 79.78L17.3 78.36C17.85 79.26 18.82 80 20.41 80C23.26 80 24.41 77.69 24.41 74.8L24.41 74.33C24.41 71.43 23.26 69.13 20.41 69.13C18.95 69.13 18.01 69.76 17.46 70.55L17.46 64.03ZM17.46 71.98C17.87 71.29 18.68 70.37 20.1 70.37C22.06 70.37 22.99 71.9 22.99 74.33L22.99 74.8C22.99 77.22 22.06 78.75 20.1 78.75C18.68 78.75 17.87 77.83 17.46 77.14L17.46 71.98Z" fill="#191919" fill-opacity="1.000000" fill-rule="nonzero"/>
	<path id="Vector" d="M33.83 78.83C31.77 78.83 31.19 77.73 31.19 76.59L29.82 76.59L29.82 76.67C29.82 78.26 30.88 80 33.83 80C36.41 80 37.85 78.74 37.85 76.92L37.85 76.83C37.85 74.91 36.73 74.17 34.11 73.95C31.85 73.77 31.33 73.18 31.33 72.1C31.33 70.94 32.26 70.29 33.83 70.29C35.78 70.29 36.37 71.22 36.37 72.71L37.73 72.71L37.73 72.63C37.73 70.58 36.69 69.13 33.83 69.13C31.39 69.13 29.96 70.29 29.96 72.1L29.96 72.22C29.96 73.77 30.76 74.76 33.58 75C35.61 75.17 36.43 75.51 36.43 76.92C36.43 78.09 35.53 78.83 33.83 78.83Z" fill="#191919" fill-opacity="1.000000" fill-rule="nonzero"/>
	<path id="Vector" d="M45.96 69.35L45.96 66.39L44.58 66.39L44.58 69.35L42.93 69.35L42.93 70.58L44.58 70.58L44.58 76.88C44.58 79.15 45.86 80 47.63 80C48.46 80 48.93 79.84 49.09 79.78L49.09 78.58C48.93 78.65 48.4 78.75 47.97 78.75C46.65 78.75 45.96 78.36 45.96 76.71L45.96 70.58L49.28 70.58L49.28 69.35L45.96 69.35Z" fill="#191919" fill-opacity="1.000000" fill-rule="nonzero"/>
	<path id="Vector" d="M58.97 69.13C57.57 69.13 56.61 69.86 56.05 70.72L55.86 69.35L54.72 69.35L54.83 72.3L54.83 79.78L56.21 79.78L56.21 72.04C56.64 71.35 57.41 70.47 58.99 70.47L59.26 70.47L59.26 69.15C59.24 69.15 59.11 69.13 58.97 69.13Z" fill="#191919" fill-opacity="1.000000" fill-rule="nonzero"/>
	<path id="Vector" d="M71.23 79.78L72.37 79.78L72.25 76.83L72.25 73.01C72.25 70.7 71.37 69.13 68.48 69.13C65.41 69.13 64.72 71.04 64.72 72.61L64.72 72.79L66.04 72.79C66.04 71.43 66.49 70.29 68.46 70.29C70.31 70.29 70.88 71.22 70.88 73.01L70.88 73.28L67.73 73.77C66.04 74.03 64.32 74.68 64.32 76.94L64.32 77.14C64.32 78.81 65.43 80 67.33 80C69.15 80 70.33 79.23 71.02 78.32L71.23 79.78ZM67.69 78.79C66.29 78.79 65.7 77.95 65.7 77.02L65.7 76.84C65.7 75.66 66.51 75.01 67.85 74.78L70.88 74.29L70.88 77.14C70.5 77.75 69.62 78.79 67.69 78.79Z" fill="#191919" fill-opacity="1.000000" fill-rule="nonzero"/>
	<path id="Vector" d="M79.22 74.8L79.22 74.32C79.22 71.94 80.13 70.37 82.19 70.37C84.08 70.37 84.85 71.57 84.85 73.16L86.17 73.16L86.17 72.77C86.17 71.08 85.05 69.13 82.18 69.13C79.12 69.13 77.83 71.43 77.83 74.32L77.83 74.8C77.83 77.69 79.12 80 82.18 80C85.05 80 86.17 78.12 86.17 76.47L86.17 76.16L84.85 76.16C84.85 77.51 84.14 78.75 82.19 78.75C80.13 78.75 79.22 77.18 79.22 74.8Z" fill="#191919" fill-opacity="1.000000" fill-rule="nonzero"/>
	<path id="Vector" d="M94.12 69.35L94.12 66.39L92.74 66.39L92.74 69.35L91.09 69.35L91.09 70.58L92.74 70.58L92.74 76.88C92.74 79.15 94.02 80 95.8 80C96.62 80 97.09 79.84 97.25 79.78L97.25 78.58C97.09 78.65 96.56 78.75 96.13 78.75C94.81 78.75 94.12 78.36 94.12 76.71L94.12 70.58L97.45 70.58L97.45 69.35L94.12 69.35Z" fill="#191919" fill-opacity="1.000000" fill-rule="nonzero"/>
	<path id="Vector" d="M70.25 43.78L71.59 43.78L71.59 45.11L70.25 45.11L70.25 43.78Z" fill="#191919" fill-opacity="1.000000" fill-rule="nonzero"/>
	<path id="Vector" d="M26.47 1.35L27.83 1.35L27.83 43.78L26.47 43.78L26.47 1.35Z" fill="#191919" fill-opacity="1.000000" fill-rule="nonzero"/>
	<path id="Vector" d="M26.47 43.78L27.83 43.78L27.83 45.11L26.47 45.11L26.47 43.78Z" fill="#191919" fill-opacity="1.000000" fill-rule="nonzero"/>
	<path id="Vector" d="M70.25 1.35L71.59 1.35L71.59 43.78L70.25 43.78L70.25 1.35Z" fill="#191919" fill-opacity="1.000000" fill-rule="nonzero"/>
	<path id="Vector" d="M27.83 43.78L70.25 43.78L70.25 45.11L27.83 45.11L27.83 43.78Z" fill="#191919" fill-opacity="1.000000" fill-rule="nonzero"/>
	<path id="Vector" d="M70.25 0L71.59 0L71.59 1.35L70.25 1.35L70.25 0Z" fill="#191919" fill-opacity="1.000000" fill-rule="nonzero"/>
	<path id="Vector" d="M26.47 0L27.83 0L27.83 1.35L26.47 1.35L26.47 0Z" fill="#191919" fill-opacity="1.000000" fill-rule="nonzero"/>
	<path id="Vector" d="M27.83 0L70.25 0L70.25 1.35L27.83 1.35L27.83 0Z" fill="#191919" fill-opacity="1.000000" fill-rule="nonzero"/>
	<path id="Vector" d="M32.47 6L65.28 6L65.28 38.8L32.47 38.8L32.47 6Z" fill="#191919" fill-opacity="1.000000" fill-rule="nonzero"/>
	<path id="Vector" d="M42.08 20.85L55.85 20.85L55.85 23.91L42.08 23.91L42.08 20.85Z" fill="#FDFBF5" fill-opacity="1.000000" fill-rule="nonzero"/>
</svg>
