<svg width="80.000000" height="80.000000" viewBox="0 0 80 80" fill="none" xmlns="http://www.w3.org/2000/svg" xmlns:xlink="http://www.w3.org/1999/xlink">
	<desc>
			Created with Pixso.
	</desc>
	<defs/>
	<path id="Vector" d="M79.63 39.63C77.05 39.63 74.49 39.39 71.96 38.89C69.43 38.39 66.98 37.64 64.59 36.66C62.21 35.67 59.95 34.46 57.81 33.03C55.66 31.59 53.68 29.96 51.86 28.13C50.04 26.31 48.4 24.33 46.97 22.19C45.53 20.04 44.32 17.78 43.33 15.4C42.34 13.02 41.6 10.56 41.1 8.03C40.6 5.5 40.36 2.94 40.36 0.36C40.36 0.26 40.33 0.18 40.26 0.1C40.18 0.03 40.1 0 40 0C39.89 0 39.81 0.03 39.73 0.1C39.66 0.18 39.63 0.26 39.63 0.36C39.63 2.94 39.39 5.5 38.89 8.03C38.39 10.56 37.65 13.02 36.66 15.4C35.67 17.78 34.46 20.04 33.02 22.19C31.59 24.33 29.96 26.31 28.13 28.13C26.31 29.96 24.33 31.59 22.19 33.03C20.04 34.46 17.78 35.67 15.4 36.66C13.02 37.64 10.56 38.39 8.03 38.89C5.5 39.39 2.94 39.63 0.36 39.63C0.26 39.63 0.17 39.66 0.1 39.73C0.03 39.81 0 39.89 0 40C0 40.1 0.03 40.18 0.1 40.26C0.17 40.33 0.26 40.36 0.36 40.36C2.94 40.36 5.5 40.6 8.03 41.1C10.56 41.6 13.01 42.35 15.4 43.33C17.78 44.32 20.04 45.53 22.18 46.97C24.33 48.4 26.31 50.03 28.13 51.86C29.96 53.68 31.59 55.66 33.02 57.81C34.46 59.95 35.67 62.21 36.66 64.59C37.65 66.98 38.39 69.43 38.89 71.96C39.39 74.49 39.63 77.05 39.63 79.63C39.63 79.73 39.66 79.82 39.73 79.89C39.81 79.96 39.89 80 40 80C40.1 80 40.18 79.96 40.26 79.89C40.33 79.82 40.36 79.73 40.36 79.63C40.36 57.98 57.98 40.36 79.63 40.36C79.73 40.36 79.82 40.33 79.89 40.26C79.96 40.18 80 40.1 80 40C80 39.89 79.96 39.81 79.89 39.73C79.82 39.66 79.73 39.63 79.63 39.63ZM40 74.17C39.71 72.02 39.24 69.91 38.61 67.84C37.97 65.77 37.17 63.76 36.2 61.82C35.24 59.88 34.12 58.03 32.86 56.27C31.59 54.51 30.18 52.87 28.65 51.34C27.12 49.81 25.48 48.4 23.72 47.14C21.96 45.87 20.12 44.75 18.18 43.79C16.24 42.82 14.23 42.02 12.16 41.39C10.09 40.75 7.98 40.29 5.83 40C7.98 39.71 10.09 39.24 12.16 38.6C14.23 37.97 16.24 37.17 18.18 36.2C20.12 35.24 21.97 34.12 23.72 32.85C25.48 31.59 27.12 30.18 28.65 28.65C30.19 27.12 31.59 25.48 32.86 23.72C34.12 21.97 35.24 20.12 36.2 18.18C37.17 16.24 37.97 14.23 38.6 12.16C39.24 10.09 39.7 7.98 40 5.84C40.29 7.98 40.75 10.09 41.39 12.16C42.02 14.23 42.82 16.24 43.79 18.18C44.75 20.12 45.87 21.97 47.14 23.72C48.4 25.48 49.81 27.12 51.34 28.65C52.87 30.19 54.51 31.59 56.27 32.86C58.03 34.12 59.88 35.24 61.82 36.21C63.76 37.17 65.77 37.97 67.84 38.61C69.91 39.24 72.02 39.71 74.17 40C56.47 42.42 42.42 56.47 40 74.17Z" fill="#191919" fill-opacity="1.000000" fill-rule="nonzero"/>
</svg>
