<svg width="147.000000" height="42.000000" viewBox="0 0 147 42" fill="none" xmlns="http://www.w3.org/2000/svg" xmlns:xlink="http://www.w3.org/1999/xlink">
	<desc>
			Created with Pixso.
	</desc>
	<defs/>
	<path id="Vector (Stroke)" d="M-0.46 0L146.96 0L146.96 42L-0.46 42L-0.46 0ZM1.54 2L1.54 40L144.96 40L144.96 2L1.54 2Z" fill="#191919" fill-opacity="1.000000" fill-rule="evenodd"/>
	<path id="Vector" d="M4.47 4.76L73.22 4.76L73.22 37.26L4.47 37.26L4.47 4.76Z" fill="#191919" fill-opacity="1.000000" fill-rule="nonzero"/>
	<path id="Vector" d="M13.18 26.5L14.46 26.5L18.8 15.57L17.34 15.57L15.52 20.18L13.82 24.52L12.1 20.18L10.29 15.57L8.83 15.57L13.18 26.5Z" fill="#FDFBF5" fill-opacity="1.000000" fill-rule="nonzero"/>
	<path id="Vector" d="M21.84 26.5L23.21 26.5L23.21 15.57L21.84 15.57L21.84 26.5Z" fill="#FDFBF5" fill-opacity="1.000000" fill-rule="nonzero"/>
	<path id="Vector" d="M31.21 26.7C33.6 26.7 35.15 25.53 35.15 23.63C35.15 22.02 34.07 21.05 31.28 20.36C29.15 19.85 28.45 19.29 28.45 18.38C28.45 17.34 29.39 16.68 30.95 16.68C32.55 16.68 33.55 17.49 33.58 18.8L34.94 18.8C34.93 16.68 33.4 15.37 30.95 15.37C28.56 15.37 27.05 16.54 27.05 18.38C27.05 20.07 28.25 21 30.93 21.64C32.9 22.11 33.72 22.66 33.72 23.67C33.72 24.75 32.76 25.39 31.21 25.39C29.51 25.39 28.33 24.55 28.29 23.14L26.92 23.14C26.94 25.28 28.61 26.7 31.21 26.7Z" fill="#FDFBF5" fill-opacity="1.000000" fill-rule="nonzero"/>
	<path id="Vector" d="M38.86 26.5L40.23 26.5L40.23 15.57L38.86 15.57L38.86 26.5Z" fill="#FDFBF5" fill-opacity="1.000000" fill-rule="nonzero"/>
	<path id="Vector" d="M49.56 26.7C52.88 26.7 55.22 24.36 55.22 21.03C55.22 17.71 52.88 15.37 49.56 15.37C46.23 15.37 43.91 17.71 43.91 21.03C43.91 24.36 46.23 26.7 49.56 26.7ZM45.31 21.03C45.31 18.49 47.05 16.74 49.56 16.74C52.07 16.74 53.8 18.49 53.8 21.03C53.8 23.58 52.07 25.33 49.56 25.33C47.05 25.33 45.31 23.58 45.31 21.03Z" fill="#FDFBF5" fill-opacity="1.000000" fill-rule="nonzero"/>
	<path id="Vector" d="M58.88 26.5L60.24 26.5L60.24 17.95L66.28 26.5L67.56 26.5L67.56 15.57L66.22 15.57L66.22 24.12L60.18 15.57L58.88 15.57L58.88 26.5Z" fill="#FDFBF5" fill-opacity="1.000000" fill-rule="nonzero"/>
	<path id="Vector" d="M83.27 26.4C85.99 26.4 87.59 25.12 87.59 22.97C87.59 21.16 86.42 20.09 83.77 19.5C82.37 19.19 81.85 18.85 81.85 18.28C81.85 17.75 82.32 17.43 83.05 17.43C83.93 17.43 84.43 17.88 84.43 18.71L87.39 18.71C87.39 16.46 85.68 15.01 82.99 15.01C80.42 15.01 78.83 16.29 78.83 18.35C78.83 20.19 80.03 21.33 82.49 21.8C83.82 22.06 84.46 22.47 84.46 23.09C84.46 23.64 83.99 23.95 83.23 23.95C82.32 23.95 81.79 23.46 81.79 22.62L78.75 22.62C78.75 24.98 80.43 26.4 83.27 26.4Z" fill="#191919" fill-opacity="1.000000" fill-rule="nonzero"/>
	<path id="Vector" d="M91.93 26.16L95.07 26.16L95.07 18.16L98.39 18.16L98.39 15.24L88.61 15.24L88.61 18.16L91.93 18.16L91.93 26.16Z" fill="#191919" fill-opacity="1.000000" fill-rule="nonzero"/>
	<path id="Vector" d="M104.68 26.4C107.63 26.4 109.46 24.6 109.46 21.67L109.46 15.24L106.32 15.24L106.32 21.47C106.32 22.76 105.77 23.45 104.68 23.45C103.59 23.45 103.04 22.76 103.04 21.47L103.04 15.24L99.89 15.24L99.89 21.67C99.89 24.6 101.73 26.4 104.68 26.4Z" fill="#191919" fill-opacity="1.000000" fill-rule="nonzero"/>
	<path id="Vector" d="M111.69 26.16L116.32 26.16C119.85 26.16 122.19 24 122.19 20.7C122.19 17.43 119.85 15.24 116.32 15.24L111.69 15.24L111.69 26.16ZM114.84 23.34L114.84 18.07L116.23 18.07C117.9 18.07 118.97 19.1 118.97 20.7C118.97 22.31 117.9 23.34 116.23 23.34L114.84 23.34Z" fill="#191919" fill-opacity="1.000000" fill-rule="nonzero"/>
	<path id="Vector" d="M123.87 26.16L127.02 26.16L127.02 15.24L123.87 15.24L123.87 26.16Z" fill="#191919" fill-opacity="1.000000" fill-rule="nonzero"/>
	<path id="Vector" d="M134.65 26.4C138.13 26.4 140.6 24.04 140.6 20.7C140.6 17.36 138.13 15.01 134.65 15.01C131.17 15.01 128.71 17.36 128.71 20.7C128.71 24.04 131.17 26.4 134.65 26.4ZM131.91 20.7C131.91 19.06 133.05 17.93 134.65 17.93C136.28 17.93 137.4 19.06 137.4 20.7C137.4 22.34 136.28 23.48 134.65 23.48C133.05 23.48 131.91 22.34 131.91 20.7Z" fill="#191919" fill-opacity="1.000000" fill-rule="nonzero"/>
</svg>
