<svg width="85.000000" height="80.000000" viewBox="0 0 85 80" fill="none" xmlns="http://www.w3.org/2000/svg" xmlns:xlink="http://www.w3.org/1999/xlink">
	<desc>
			Created with Pixso.
	</desc>
	<defs/>
	<path id="Vector" d="M-0.95 67.83L0.39 67.83L0.39 57.19L-0.95 57.19L-0.95 67.83Z" fill="#191919" fill-opacity="1.000000" fill-rule="nonzero"/>
	<path id="Vector" d="M13.51 57.19L13.51 65.4L7.55 57.19L6.34 57.19L6.34 67.83L7.65 67.83L7.65 59.53L13.7 67.83L14.82 67.83L14.82 57.19L13.51 57.19Z" fill="#191919" fill-opacity="1.000000" fill-rule="nonzero"/>
	<path id="Vector" d="M27.9 57.19L24.51 65.84L21.07 57.19L19.6 57.19L23.9 67.83L25.13 67.83L29.36 57.19L27.9 57.19Z" fill="#191919" fill-opacity="1.000000" fill-rule="nonzero"/>
	<path id="Vector" d="M34.18 67.83L35.52 67.83L35.52 57.19L34.18 57.19L34.18 67.83Z" fill="#191919" fill-opacity="1.000000" fill-rule="nonzero"/>
	<path id="Vector" d="M44.64 67.97C46.75 67.97 48.4 66.83 48.4 64.82C48.4 62.6 46.51 62.16 44.84 61.75C43.47 61.43 42.24 61.12 42.24 59.97C42.24 58.95 43.21 58.34 44.5 58.34C45.8 58.34 46.77 59.03 46.77 60.21L48.09 60.21C48.09 58.28 46.74 57.06 44.54 57.06C42.33 57.06 40.91 58.17 40.91 60.01C40.91 62.14 42.73 62.58 44.37 62.96C45.75 63.3 47.01 63.59 47.01 64.83C47.01 65.96 45.96 66.66 44.63 66.66C43.15 66.66 42.07 65.88 42.07 64.56L40.7 64.56C40.7 66.66 42.3 67.97 44.64 67.97Z" fill="#191919" fill-opacity="1.000000" fill-rule="nonzero"/>
	<path id="Vector" d="M53.58 67.83L54.92 67.83L54.92 57.19L53.58 57.19L53.58 67.83Z" fill="#191919" fill-opacity="1.000000" fill-rule="nonzero"/>
	<path id="Vector" d="M65.71 68.01C68.94 68.01 71.28 65.66 71.28 62.52C71.28 59.38 68.94 57.02 65.71 57.02C62.49 57.02 60.13 59.38 60.13 62.52C60.13 65.66 62.49 68.01 65.71 68.01ZM65.71 66.71C63.3 66.71 61.5 64.9 61.5 62.52C61.5 60.14 63.3 58.33 65.71 58.33C68.13 58.33 69.93 60.12 69.93 62.52C69.93 64.91 68.13 66.71 65.71 66.71Z" fill="#191919" fill-opacity="1.000000" fill-rule="nonzero"/>
	<path id="Vector" d="M83.69 57.19L83.69 65.4L77.73 57.19L76.51 57.19L76.51 67.83L77.82 67.83L77.82 59.53L83.87 67.83L85 67.83L85 57.19L83.69 57.19Z" fill="#191919" fill-opacity="1.000000" fill-rule="nonzero"/>
	<path id="Vector" d="M19.71 79.54C20.54 79.54 21.19 79.09 21.19 78.3C21.19 77.43 20.45 77.25 19.79 77.09C19.25 76.96 18.76 76.84 18.76 76.39C18.76 75.98 19.15 75.74 19.66 75.74C20.17 75.74 20.55 76.01 20.55 76.48L21.07 76.48C21.07 75.72 20.54 75.24 19.67 75.24C18.8 75.24 18.24 75.68 18.24 76.41C18.24 77.25 18.95 77.42 19.6 77.57C20.15 77.7 20.65 77.81 20.65 78.31C20.65 78.75 20.23 79.03 19.7 79.03C19.12 79.03 18.7 78.72 18.7 78.2L18.16 78.2C18.16 79.03 18.79 79.54 19.71 79.54Z" fill="#191919" fill-opacity="1.000000" fill-rule="nonzero"/>
	<path id="Vector" d="M31.03 80L30.22 79.05C30.68 78.66 30.96 78.07 30.96 77.39C30.96 76.15 30.03 75.22 28.76 75.22C27.48 75.22 26.55 76.15 26.55 77.39C26.55 78.63 27.48 79.56 28.76 79.56C29.14 79.56 29.5 79.48 29.81 79.32L30.39 80L31.03 80ZM28.76 79.05C27.8 79.05 27.1 78.33 27.1 77.39C27.1 76.45 27.8 75.74 28.76 75.74C29.71 75.74 30.42 76.45 30.42 77.39C30.42 77.91 30.21 78.35 29.87 78.64L29.11 77.77L28.47 77.77L29.45 78.91C29.24 79 29.01 79.05 28.76 79.05Z" fill="#191919" fill-opacity="1.000000" fill-rule="nonzero"/>
	<path id="Vector" d="M38.23 79.56C39.17 79.56 39.87 78.88 39.87 77.93L39.87 75.29L39.34 75.29L39.34 77.89C39.34 78.58 38.87 79.05 38.23 79.05C37.57 79.05 37.11 78.58 37.11 77.89L37.11 75.29L36.57 75.29L36.57 77.93C36.57 78.88 37.28 79.56 38.23 79.56Z" fill="#191919" fill-opacity="1.000000" fill-rule="nonzero"/>
	<path id="Vector" d="M48.71 79.49L49.28 79.49L47.51 75.29L47.02 75.29L45.3 79.49L45.86 79.49L46.27 78.49L48.29 78.49L48.71 79.49ZM47.27 76.01L48.1 78L46.47 78L47.27 76.01Z" fill="#191919" fill-opacity="1.000000" fill-rule="nonzero"/>
	<path id="Vector" d="M57.21 79.49L57.8 79.49L56.79 77.79C57.35 77.63 57.73 77.17 57.73 76.57C57.73 75.83 57.14 75.29 56.36 75.29L54.76 75.29L54.76 79.49L55.29 79.49L55.29 77.85L56.24 77.85L57.21 79.49ZM55.29 75.79L56.33 75.79C56.84 75.79 57.19 76.12 57.19 76.57C57.19 77.02 56.84 77.35 56.33 77.35L55.29 77.35L55.29 75.79Z" fill="#191919" fill-opacity="1.000000" fill-rule="nonzero"/>
	<path id="Vector" d="M63.96 78.99L63.96 77.57L65.65 77.57L65.65 77.09L63.96 77.09L63.96 75.79L65.81 75.79L65.81 75.29L63.43 75.29L63.43 79.49L65.87 79.49L65.87 78.99L63.96 78.99Z" fill="#191919" fill-opacity="1.000000" fill-rule="nonzero"/>
	<path id="Vector" d="M22.93 3.44L32.95 3.44L31.64 4.72L23.57 4.72L23.57 12.77L22.29 14.1L22.29 3.44L22.93 3.44ZM36.6 3.44L47.45 3.44L48.73 4.72L35.32 4.72L36.6 3.44ZM51.14 3.44L61.79 3.44L61.79 14.1L60.48 12.78L60.48 4.72L52.43 4.72L51.14 3.44ZM61.79 17.74L61.79 28.6L60.48 29.88L60.48 16.46L61.79 17.74ZM61.79 32.28L61.79 42.94L51.14 42.94L52.42 41.62L60.47 41.62L60.47 33.57L61.79 32.28ZM47.45 42.94L36.6 42.94L35.32 41.62L48.73 41.62L47.45 42.94ZM32.95 42.94L22.29 42.94L22.29 32.28L23.57 33.56L23.57 41.61L31.63 41.61L32.95 42.94ZM22.29 28.6L22.29 17.74L23.57 16.46L23.57 29.88L22.29 28.6Z" fill="#191919" fill-opacity="1.000000" fill-rule="nonzero"/>
	<path id="Vector" d="M46.97 0.2L65.24 18.47L65.24 27.92L46.77 46.38L37.32 46.38L18.85 27.91C18.85 24.75 18.85 21.58 18.85 18.46C24.98 12.3 31.15 6.13 37.32 0L46.78 0L46.97 0.2ZM63.92 18.99L46.21 1.28L37.84 1.28L20.13 18.99L20.13 27.35L37.83 45.05L46.2 45.05L63.9 27.35L63.9 18.99L63.92 18.99Z" fill="#191919" fill-opacity="1.000000" fill-rule="nonzero"/>
	<path id="Vector" d="M42.48 3.88L47.17 8.57L45.32 8.57L42.04 5.25L38.72 8.57L36.92 8.57L42.04 3.44L42.48 3.88ZM49.77 11.17L54.06 15.46L54.06 17.26L47.93 11.17L49.77 11.17ZM56.66 18.06L61.79 23.19L56.66 28.32L56.66 26.47L59.95 23.19L56.66 19.87L56.66 18.06ZM54.06 30.92L49.77 35.2L47.93 35.2L54.06 29.07L54.06 30.92ZM47.17 37.81L42.04 42.94L36.91 37.81L38.71 37.81L42.04 41.09L45.33 37.81L47.17 37.81ZM34.32 35.2L30.03 30.92L30.03 29.07L36.12 35.2L34.32 35.2ZM27.42 28.32L22.29 23.19L27.42 18.06L27.42 19.86L24.1 23.19L27.42 26.47L27.42 28.32ZM30.03 15.46L34.32 11.17L36.12 11.17L30.03 17.26L30.03 15.46Z" fill="#191919" fill-opacity="1.000000" fill-rule="nonzero"/>
	<path id="Vector" d="M55.99 14.26L55.99 32.36L51.41 36.97L50.93 37.12L33.11 37.12L32.67 36.97L28.06 32.35L28.06 13.98L32.83 9.21L51.22 9.21L55.99 13.98L55.99 14.26ZM54.7 31.84L54.7 14.53L50.69 10.49L33.39 10.49L29.34 14.53L29.34 31.83L33.39 35.84L50.69 35.84L54.7 31.84Z" fill="#191919" fill-opacity="1.000000" fill-rule="nonzero"/>
	<path id="Vector" d="M42.48 9.93L47.41 14.86L42.04 20.27L36.63 14.86L42.04 9.49L42.48 9.93ZM45.61 14.86L42.04 11.25L38.44 14.86L42.04 18.47L45.61 14.86Z" fill="#191919" fill-opacity="1.000000" fill-rule="nonzero"/>
	<path id="Vector" d="M55.3 23.62L50.34 28.55L44.97 23.19L50.34 17.78L55.75 23.19L55.3 23.62ZM50.34 26.8L53.95 23.19L50.34 19.58L46.77 23.19L50.34 26.8Z" fill="#191919" fill-opacity="1.000000" fill-rule="nonzero"/>
	<path id="Vector" d="M41.61 36.45L36.64 31.48L42.05 26.11L47.43 31.48L42.04 36.89L41.61 36.45ZM38.44 31.48L42.04 35.09L45.61 31.48L42.04 27.91L38.44 31.48Z" fill="#191919" fill-opacity="1.000000" fill-rule="nonzero"/>
	<path id="Vector" d="M28.79 22.75L33.71 17.79L39.12 23.2L33.71 28.57L28.34 23.19L28.79 22.75ZM33.71 19.58L30.1 23.19L33.71 26.8L37.32 23.19L33.71 19.58Z" fill="#191919" fill-opacity="1.000000" fill-rule="nonzero"/>
	<path id="Vector" d="M42.48 18.87L46.8 23.19L42.04 27.96L37.28 23.19L42.04 18.42L42.48 18.87ZM45.01 23.19L42.04 20.22L39.08 23.19L42.04 26.16L45.01 23.19Z" fill="#191919" fill-opacity="1.000000" fill-rule="nonzero"/>
</svg>
