<svg width="80.000000" height="81.000000" viewBox="0 0 80 81" fill="none" xmlns="http://www.w3.org/2000/svg" xmlns:xlink="http://www.w3.org/1999/xlink">
	<desc>
			Created with Pixso.
	</desc>
	<defs/>
	<path id="Vector" d="M40 80C17.94 80 0 62.05 0 40C0 17.94 17.94 0 40 0C62.05 0 80 17.94 80 40C80 62.05 62.05 80 40 80ZM40 0.78C18.37 0.78 0.78 18.38 0.78 40C0.78 61.62 18.37 79.21 40 79.21C61.62 79.21 79.21 61.62 79.21 40C79.21 18.38 61.62 0.78 40 0.78ZM40 71.92C22.39 71.92 8.08 57.6 8.08 40C8.08 22.4 22.39 8.08 40 8.08C57.6 8.08 71.91 22.4 71.91 40C71.91 57.6 57.59 71.92 40 71.92ZM40 8.87C22.83 8.87 8.86 22.83 8.86 40C8.86 57.16 22.83 71.13 40 71.13C57.16 71.13 71.13 57.16 71.13 40C71.13 22.83 57.16 8.87 40 8.87ZM40 63.83C39.22 63.83 38.44 63.79 37.66 63.72C36.88 63.64 36.11 63.53 35.35 63.37C34.58 63.22 33.82 63.03 33.08 62.81C32.33 62.58 31.6 62.32 30.87 62.02C30.15 61.72 29.45 61.39 28.76 61.02C28.07 60.65 27.4 60.25 26.75 59.81C26.1 59.38 25.48 58.92 24.87 58.42C24.27 57.93 23.69 57.4 23.14 56.85C22.59 56.3 22.06 55.72 21.57 55.12C21.07 54.52 20.61 53.89 20.18 53.24C19.74 52.59 19.34 51.92 18.97 51.23C18.6 50.54 18.27 49.84 17.97 49.12C17.67 48.4 17.41 47.66 17.18 46.92C16.96 46.17 16.77 45.41 16.62 44.65C16.46 43.88 16.35 43.11 16.27 42.33C16.2 41.56 16.16 40.78 16.16 40C16.16 39.22 16.2 38.44 16.27 37.66C16.35 36.88 16.46 36.11 16.62 35.35C16.77 34.58 16.96 33.82 17.18 33.08C17.41 32.33 17.67 31.6 17.97 30.87C18.27 30.15 18.6 29.45 18.97 28.76C19.34 28.07 19.74 27.4 20.18 26.75C20.61 26.1 21.07 25.48 21.57 24.87C22.06 24.27 22.59 23.69 23.14 23.14C23.69 22.59 24.27 22.07 24.87 21.57C25.47 21.08 26.1 20.61 26.75 20.18C27.4 19.74 28.07 19.34 28.76 18.98C29.45 18.61 30.15 18.27 30.87 17.98C31.59 17.68 32.33 17.41 33.07 17.19C33.82 16.96 34.58 16.77 35.34 16.62C36.11 16.47 36.88 16.35 37.66 16.28C38.43 16.2 39.21 16.16 39.99 16.16C40.77 16.16 41.55 16.2 42.33 16.28C43.11 16.35 43.88 16.47 44.64 16.62C45.41 16.77 46.17 16.96 46.91 17.19C47.66 17.41 48.39 17.68 49.12 17.97C49.84 18.27 50.54 18.61 51.23 18.98C51.92 19.34 52.59 19.74 53.24 20.18C53.89 20.61 54.51 21.08 55.12 21.57C55.72 22.07 56.3 22.59 56.85 23.14C57.4 23.69 57.92 24.27 58.42 24.87C58.91 25.48 59.38 26.1 59.81 26.75C60.25 27.4 60.65 28.07 61.01 28.76C61.38 29.45 61.72 30.15 62.01 30.87C62.31 31.6 62.58 32.33 62.8 33.08C63.03 33.82 63.22 34.58 63.37 35.35C63.52 36.11 63.64 36.88 63.71 37.66C63.79 38.44 63.83 39.22 63.83 40C63.83 40.78 63.79 41.56 63.71 42.33C63.64 43.11 63.52 43.88 63.37 44.64C63.21 45.41 63.03 46.17 62.8 46.91C62.57 47.66 62.31 48.39 62.01 49.12C61.71 49.84 61.37 50.54 61.01 51.23C60.64 51.92 60.24 52.58 59.8 53.23C59.37 53.88 58.91 54.51 58.41 55.11C57.92 55.71 57.39 56.29 56.84 56.84C56.29 57.39 55.71 57.92 55.11 58.41C54.5 58.91 53.88 59.37 53.23 59.81C52.58 60.24 51.91 60.64 51.23 61.01C50.54 61.38 49.83 61.71 49.11 62.01C48.39 62.31 47.66 62.57 46.91 62.8C46.17 63.03 45.41 63.22 44.64 63.37C43.88 63.52 43.11 63.64 42.33 63.71C41.56 63.79 40.78 63.83 40 63.83ZM40 16.95C39.24 16.95 38.49 16.98 37.74 17.06C36.98 17.13 36.24 17.24 35.5 17.39C34.76 17.54 34.03 17.72 33.3 17.94C32.58 18.16 31.87 18.41 31.17 18.7C30.48 18.99 29.8 19.31 29.13 19.67C28.46 20.03 27.82 20.41 27.19 20.83C26.56 21.25 25.96 21.7 25.37 22.18C24.79 22.66 24.23 23.16 23.7 23.7C23.16 24.23 22.65 24.79 22.17 25.37C21.7 25.96 21.25 26.56 20.83 27.19C20.41 27.82 20.02 28.47 19.66 29.13C19.31 29.8 18.99 30.48 18.7 31.18C18.41 31.87 18.15 32.58 17.94 33.31C17.72 34.03 17.53 34.76 17.39 35.5C17.24 36.24 17.13 36.99 17.05 37.74C16.98 38.49 16.94 39.24 16.94 40C16.94 40.75 16.98 41.51 17.05 42.26C17.13 43.01 17.24 43.76 17.39 44.5C17.53 45.23 17.72 45.97 17.94 46.69C18.15 47.41 18.41 48.12 18.7 48.82C18.99 49.52 19.31 50.2 19.66 50.86C20.02 51.53 20.41 52.18 20.83 52.8C21.25 53.43 21.7 54.04 22.17 54.62C22.65 55.2 23.16 55.76 23.69 56.3C24.23 56.83 24.79 57.34 25.37 57.82C25.95 58.3 26.56 58.74 27.19 59.16C27.81 59.58 28.46 59.97 29.13 60.33C29.79 60.68 30.47 61 31.17 61.29C31.87 61.58 32.58 61.84 33.3 62.06C34.02 62.28 34.76 62.46 35.5 62.61C36.24 62.75 36.98 62.86 37.73 62.94C38.49 63.01 39.24 63.05 39.99 63.05C40.75 63.05 41.5 63.01 42.25 62.94C43.01 62.86 43.75 62.75 44.49 62.61C45.23 62.46 45.96 62.28 46.68 62.06C47.41 61.84 48.12 61.58 48.82 61.29C49.51 61 50.19 60.68 50.86 60.33C51.53 59.97 52.17 59.58 52.8 59.16C53.43 58.74 54.03 58.3 54.62 57.82C55.2 57.34 55.76 56.83 56.29 56.3C56.83 55.76 57.33 55.2 57.81 54.62C58.29 54.04 58.74 53.43 59.16 52.8C59.58 52.18 59.97 51.53 60.32 50.86C60.68 50.2 61 49.52 61.29 48.82C61.58 48.12 61.83 47.41 62.05 46.69C62.27 45.97 62.45 45.23 62.6 44.5C62.75 43.76 62.86 43.01 62.93 42.26C63.01 41.51 63.04 40.75 63.04 40C63.04 39.24 63.01 38.49 62.93 37.74C62.86 36.99 62.75 36.24 62.6 35.5C62.45 34.76 62.27 34.03 62.05 33.31C61.83 32.59 61.57 31.88 61.28 31.18C60.99 30.49 60.67 29.8 60.31 29.14C59.96 28.47 59.57 27.82 59.15 27.2C58.73 26.57 58.28 25.97 57.8 25.38C57.33 24.8 56.82 24.24 56.29 23.71C55.75 23.17 55.19 22.67 54.61 22.19C54.03 21.71 53.42 21.26 52.79 20.84C52.17 20.42 51.52 20.03 50.86 19.68C50.19 19.32 49.51 19 48.81 18.71C48.12 18.42 47.41 18.16 46.68 17.95C45.96 17.73 45.23 17.54 44.49 17.39C43.75 17.25 43.01 17.14 42.26 17.06C41.5 16.99 40.75 16.95 40 16.95ZM40 55.75C39.48 55.75 38.97 55.72 38.45 55.67C37.94 55.62 37.43 55.55 36.92 55.45C36.42 55.34 35.92 55.22 35.42 55.07C34.93 54.92 34.44 54.75 33.97 54.55C33.49 54.35 33.02 54.13 32.57 53.89C32.11 53.64 31.67 53.38 31.24 53.09C30.81 52.81 30.4 52.5 30 52.17C29.6 51.84 29.22 51.5 28.86 51.13C28.49 50.77 28.15 50.39 27.82 49.99C27.49 49.59 27.18 49.18 26.9 48.75C26.61 48.32 26.35 47.88 26.1 47.42C25.86 46.97 25.64 46.5 25.44 46.02C25.24 45.55 25.07 45.06 24.92 44.57C24.77 44.07 24.65 43.58 24.55 43.07C24.44 42.56 24.37 42.05 24.32 41.54C24.27 41.03 24.24 40.51 24.24 40C24.24 39.48 24.27 38.97 24.32 38.45C24.37 37.94 24.44 37.43 24.54 36.92C24.65 36.42 24.77 35.92 24.92 35.42C25.07 34.93 25.24 34.45 25.44 33.97C25.64 33.49 25.86 33.03 26.1 32.57C26.35 32.12 26.61 31.67 26.9 31.25C27.18 30.82 27.49 30.4 27.82 30C28.14 29.6 28.49 29.22 28.86 28.86C29.22 28.49 29.6 28.15 30 27.82C30.4 27.49 30.81 27.19 31.24 26.9C31.67 26.61 32.11 26.35 32.57 26.1C33.02 25.86 33.49 25.64 33.97 25.44C34.44 25.25 34.93 25.07 35.42 24.92C35.91 24.77 36.41 24.65 36.92 24.55C37.43 24.45 37.94 24.37 38.45 24.32C38.96 24.27 39.48 24.24 39.99 24.24C40.51 24.24 41.02 24.27 41.54 24.32C42.05 24.37 42.56 24.45 43.07 24.55C43.57 24.65 44.07 24.77 44.57 24.92C45.06 25.07 45.54 25.25 46.02 25.44C46.5 25.64 46.96 25.86 47.42 26.1C47.87 26.35 48.32 26.61 48.75 26.9C49.17 27.19 49.59 27.49 49.99 27.82C50.39 28.15 50.77 28.49 51.13 28.86C51.5 29.22 51.84 29.6 52.17 30C52.5 30.4 52.8 30.82 53.09 31.25C53.38 31.67 53.64 32.12 53.89 32.57C54.13 33.03 54.35 33.49 54.55 33.97C54.74 34.45 54.92 34.93 55.07 35.42C55.22 35.92 55.34 36.42 55.44 36.92C55.54 37.43 55.62 37.94 55.67 38.45C55.72 38.97 55.75 39.48 55.75 40C55.74 40.51 55.72 41.03 55.67 41.54C55.62 42.05 55.54 42.56 55.44 43.07C55.34 43.57 55.21 44.07 55.06 44.57C54.91 45.06 54.74 45.55 54.54 46.02C54.34 46.5 54.12 46.96 53.88 47.42C53.64 47.87 53.37 48.32 53.09 48.74C52.8 49.17 52.49 49.59 52.16 49.98C51.84 50.38 51.49 50.77 51.13 51.13C50.76 51.49 50.38 51.84 49.98 52.17C49.58 52.49 49.17 52.8 48.74 53.09C48.31 53.38 47.87 53.64 47.42 53.88C46.96 54.13 46.5 54.35 46.02 54.54C45.54 54.74 45.06 54.91 44.57 55.06C44.07 55.22 43.57 55.34 43.07 55.44C42.56 55.54 42.05 55.62 41.54 55.67C41.03 55.72 40.51 55.75 40 55.75ZM40 25.03C39.51 25.03 39.02 25.06 38.53 25.1C38.04 25.15 37.56 25.22 37.08 25.32C36.6 25.41 36.12 25.53 35.65 25.67C35.18 25.82 34.72 25.98 34.27 26.17C33.81 26.36 33.37 26.57 32.94 26.8C32.51 27.03 32.09 27.28 31.68 27.55C31.27 27.82 30.88 28.12 30.5 28.43C30.12 28.74 29.76 29.07 29.41 29.41C29.06 29.76 28.74 30.12 28.42 30.5C28.11 30.88 27.82 31.27 27.55 31.68C27.28 32.09 27.03 32.51 26.8 32.94C26.56 33.37 26.35 33.82 26.17 34.27C25.98 34.72 25.81 35.18 25.67 35.65C25.53 36.12 25.41 36.6 25.31 37.08C25.22 37.56 25.15 38.04 25.1 38.53C25.05 39.02 25.03 39.51 25.03 40C25.03 40.49 25.05 40.98 25.1 41.47C25.15 41.95 25.22 42.44 25.31 42.92C25.41 43.4 25.53 43.87 25.67 44.34C25.81 44.81 25.98 45.27 26.17 45.73C26.35 46.18 26.56 46.62 26.79 47.05C27.03 47.49 27.28 47.91 27.55 48.31C27.82 48.72 28.11 49.11 28.42 49.49C28.74 49.87 29.06 50.23 29.41 50.58C29.76 50.93 30.12 51.26 30.5 51.57C30.88 51.88 31.27 52.17 31.68 52.44C32.09 52.72 32.51 52.97 32.94 53.2C33.37 53.43 33.81 53.64 34.27 53.83C34.72 54.01 35.18 54.18 35.65 54.32C36.12 54.46 36.59 54.58 37.07 54.68C37.56 54.77 38.04 54.84 38.53 54.89C39.01 54.94 39.5 54.97 39.99 54.97C40.48 54.97 40.97 54.94 41.46 54.89C41.95 54.84 42.43 54.77 42.91 54.68C43.39 54.58 43.87 54.46 44.34 54.32C44.81 54.18 45.27 54.01 45.72 53.83C46.17 53.64 46.62 53.43 47.05 53.2C47.48 52.97 47.9 52.72 48.31 52.44C48.72 52.17 49.11 51.88 49.49 51.57C49.87 51.26 50.23 50.93 50.58 50.58C50.92 50.23 51.25 49.87 51.56 49.49C51.87 49.11 52.16 48.72 52.44 48.31C52.71 47.91 52.96 47.49 53.19 47.05C53.42 46.62 53.63 46.18 53.82 45.73C54.01 45.27 54.17 44.81 54.32 44.34C54.46 43.87 54.58 43.4 54.67 42.92C54.77 42.44 54.84 41.95 54.89 41.47C54.94 40.98 54.96 40.49 54.96 40C54.96 39.51 54.94 39.02 54.89 38.53C54.84 38.04 54.77 37.56 54.67 37.08C54.57 36.6 54.46 36.12 54.31 35.66C54.17 35.19 54 34.73 53.82 34.27C53.63 33.82 53.42 33.38 53.19 32.95C52.96 32.51 52.71 32.1 52.43 31.69C52.16 31.28 51.87 30.89 51.56 30.51C51.25 30.13 50.92 29.77 50.57 29.42C50.23 29.07 49.86 28.75 49.49 28.43C49.11 28.12 48.71 27.83 48.31 27.56C47.9 27.29 47.48 27.04 47.05 26.8C46.62 26.57 46.17 26.36 45.72 26.17C45.27 25.99 44.81 25.82 44.34 25.68C43.87 25.54 43.39 25.42 42.91 25.32C42.43 25.23 41.95 25.15 41.46 25.1C40.97 25.06 40.49 25.03 40 25.03ZM40 47.67C39.49 47.67 38.99 47.62 38.5 47.52C38.01 47.42 37.53 47.27 37.06 47.08C36.6 46.89 36.15 46.65 35.74 46.37C35.32 46.09 34.93 45.78 34.57 45.42C34.22 45.06 33.9 44.68 33.62 44.26C33.34 43.84 33.1 43.4 32.91 42.93C32.72 42.47 32.57 41.99 32.47 41.49C32.38 41 32.33 40.5 32.33 40C32.33 39.5 32.38 39 32.47 38.5C32.57 38.01 32.72 37.53 32.91 37.06C33.1 36.6 33.34 36.16 33.62 35.74C33.9 35.32 34.22 34.93 34.57 34.58C34.93 34.22 35.32 33.9 35.74 33.62C36.15 33.34 36.6 33.11 37.06 32.91C37.53 32.72 38.01 32.58 38.5 32.48C38.99 32.38 39.49 32.33 40 32.33C40.5 32.33 41 32.38 41.49 32.48C41.99 32.58 42.47 32.72 42.93 32.91C43.39 33.11 43.84 33.34 44.25 33.62C44.67 33.9 45.06 34.22 45.42 34.58C45.77 34.93 46.09 35.32 46.37 35.74C46.65 36.16 46.89 36.6 47.08 37.06C47.27 37.53 47.42 38.01 47.52 38.5C47.62 39 47.66 39.5 47.66 40C47.66 40.5 47.61 41 47.52 41.49C47.42 41.99 47.27 42.47 47.08 42.93C46.88 43.4 46.65 43.84 46.37 44.26C46.09 44.67 45.77 45.06 45.42 45.42C45.06 45.77 44.67 46.09 44.25 46.37C43.84 46.65 43.39 46.89 42.93 47.08C42.46 47.27 41.98 47.42 41.49 47.52C41 47.62 40.5 47.67 40 47.67ZM40 33.12C39.54 33.12 39.1 33.16 38.65 33.25C38.21 33.33 37.78 33.47 37.36 33.64C36.95 33.81 36.55 34.02 36.17 34.27C35.8 34.53 35.45 34.81 35.13 35.13C34.81 35.45 34.52 35.8 34.27 36.17C34.02 36.55 33.81 36.95 33.64 37.36C33.46 37.78 33.33 38.21 33.25 38.66C33.16 39.1 33.11 39.54 33.11 40C33.11 40.45 33.16 40.9 33.25 41.34C33.33 41.78 33.46 42.21 33.64 42.63C33.81 43.05 34.02 43.45 34.27 43.82C34.52 44.2 34.81 44.54 35.13 44.87C35.45 45.18 35.8 45.47 36.17 45.72C36.55 45.97 36.95 46.18 37.36 46.36C37.78 46.53 38.21 46.66 38.65 46.75C39.1 46.84 39.54 46.88 40 46.88C40.45 46.88 40.9 46.84 41.34 46.75C41.78 46.66 42.21 46.53 42.63 46.36C43.05 46.18 43.45 45.97 43.82 45.72C44.2 45.47 44.54 45.18 44.86 44.87C45.18 44.54 45.47 44.2 45.72 43.82C45.97 43.45 46.18 43.05 46.36 42.63C46.53 42.21 46.66 41.78 46.75 41.34C46.83 40.9 46.88 40.45 46.88 40C46.88 39.54 46.83 39.1 46.75 38.66C46.66 38.21 46.53 37.78 46.35 37.37C46.18 36.95 45.97 36.55 45.72 36.18C45.47 35.8 45.18 35.45 44.86 35.13C44.54 34.81 44.2 34.53 43.82 34.28C43.44 34.03 43.05 33.81 42.63 33.64C42.21 33.47 41.78 33.34 41.34 33.25C40.9 33.16 40.45 33.12 40 33.12Z" fill="#191919" fill-opacity="1.000000" fill-rule="nonzero"/>
</svg>
