<svg width="100.000000" height="98.000000" viewBox="0 0 100 98" fill="none" xmlns="http://www.w3.org/2000/svg" xmlns:xlink="http://www.w3.org/1999/xlink">
	<desc>
			Created with Pixso.
	</desc>
	<defs/>
	<path id="Vector" d="M99.5 38.95C99.5 17.47 82.03 0 60.56 0C59.07 0 57.59 0.08 56.11 0.25C54.62 0.42 53.16 0.68 51.71 1.02C50.25 1.36 48.83 1.78 47.42 2.28C46.02 2.79 44.65 3.37 43.32 4.03C41.98 4.69 40.69 5.43 39.43 6.24C38.18 7.05 36.98 7.93 35.83 8.88C34.68 9.83 33.59 10.84 32.55 11.91C31.52 12.99 30.55 14.12 29.65 15.3C25.33 17.88 21.64 21.16 18.58 25.15C17.13 26.01 15.75 26.96 14.42 28C13.1 29.03 11.85 30.16 10.67 31.35C9.49 32.55 8.39 33.83 7.38 35.17C6.36 36.51 5.44 37.91 4.61 39.37C3.77 40.84 3.04 42.35 2.4 43.9C1.76 45.46 1.23 47.05 0.8 48.68C0.37 50.31 0.04 51.95 -0.18 53.62C-0.39 55.29 -0.5 56.97 -0.5 58.65C-0.5 80.13 16.96 97.6 38.43 97.6C39.92 97.6 41.4 97.51 42.89 97.34C44.37 97.17 45.83 96.92 47.28 96.58C48.74 96.24 50.16 95.82 51.57 95.31C52.97 94.81 54.34 94.23 55.67 93.56C57.01 92.9 58.3 92.17 59.56 91.36C60.81 90.54 62.01 89.67 63.16 88.72C64.31 87.77 65.4 86.76 66.44 85.68C67.47 84.61 68.44 83.48 69.34 82.29C73.66 79.72 77.35 76.44 80.41 72.44C81.86 71.58 83.24 70.63 84.57 69.6C85.89 68.56 87.14 67.44 88.32 66.24C89.5 65.04 90.6 63.77 91.61 62.43C92.63 61.09 93.55 59.68 94.38 58.22C95.22 56.76 95.95 55.25 96.59 53.69C97.23 52.14 97.76 50.54 98.19 48.92C98.62 47.29 98.95 45.64 99.17 43.97C99.38 42.3 99.49 40.63 99.5 38.95ZM28.17 17.36C27.21 18.81 26.34 20.32 25.57 21.88C23.94 22.46 22.34 23.14 20.79 23.93C22.97 21.42 25.43 19.23 28.17 17.36ZM60.55 76.95C39.61 76.95 22.56 59.9 22.56 38.94C22.56 36.12 22.87 33.34 23.5 30.59C24.12 27.84 25.04 25.19 26.25 22.65C30.2 21.31 34.26 20.64 38.43 20.65C59.37 20.65 76.41 37.69 76.41 58.65C76.42 61.47 76.11 64.26 75.49 67.01C74.87 69.76 73.95 72.41 72.74 74.95C68.79 76.29 64.73 76.95 60.56 76.95L60.55 76.95ZM72.13 76.13C71.14 78.04 69.99 79.85 68.69 81.57C65.78 83.28 62.7 84.58 59.44 85.47C56.18 86.36 52.86 86.8 49.48 86.8C28.54 86.8 11.5 69.75 11.5 48.79C11.49 46.74 11.66 44.69 11.99 42.67C12.32 40.64 12.81 38.65 13.47 36.7C14.12 34.75 14.93 32.87 15.89 31.05C16.86 29.24 17.96 27.51 19.2 25.87C21.05 24.78 22.98 23.86 24.99 23.1C22.74 28.14 21.61 33.42 21.62 38.94C21.62 60.42 39.08 77.89 60.55 77.89C64.5 77.9 68.37 77.31 72.14 76.13L72.13 76.13ZM77.35 58.64C77.35 37.17 59.88 19.69 38.41 19.69C34.46 19.69 30.6 20.28 26.83 21.45C27.83 19.54 28.98 17.73 30.27 16.02C33.18 14.3 36.27 13 39.53 12.11C42.79 11.22 46.11 10.78 49.48 10.79C70.43 10.79 87.47 27.84 87.47 48.79C87.47 50.85 87.31 52.89 86.98 54.92C86.65 56.95 86.15 58.94 85.5 60.88C84.84 62.83 84.03 64.72 83.07 66.53C82.11 68.35 81 70.08 79.76 71.71C77.91 72.8 75.98 73.73 73.97 74.49C76.23 69.45 77.36 64.17 77.36 58.65L77.35 58.64ZM38.43 96.65C17.48 96.65 0.44 79.6 0.44 58.65C0.44 57.1 0.54 55.57 0.72 54.03C0.91 52.5 1.19 50.98 1.57 49.48C1.94 47.98 2.4 46.51 2.95 45.07C3.5 43.63 4.14 42.22 4.87 40.86C5.59 39.49 6.39 38.18 7.28 36.91C8.16 35.64 9.12 34.44 10.15 33.29C11.18 32.14 12.28 31.05 13.44 30.04C14.61 29.02 15.83 28.08 17.11 27.21C14.97 30.41 13.34 33.84 12.23 37.52C11.11 41.19 10.56 44.95 10.56 48.8C10.56 70.27 28.03 87.75 49.5 87.75C52.56 87.75 55.58 87.4 58.56 86.68C61.54 85.96 64.4 84.91 67.13 83.52C66.24 84.54 65.3 85.52 64.31 86.45C63.32 87.37 62.28 88.25 61.2 89.06C60.11 89.88 58.98 90.63 57.82 91.32C56.65 92.02 55.45 92.65 54.21 93.21C52.98 93.78 51.72 94.28 50.43 94.71C49.14 95.14 47.83 95.5 46.51 95.78C45.18 96.07 43.84 96.29 42.49 96.44C41.14 96.58 39.79 96.65 38.43 96.65ZM70.8 80.23C71.77 78.78 72.64 77.27 73.4 75.71C75.05 75.13 76.64 74.45 78.2 73.66C76.02 76.17 73.56 78.36 70.82 80.23L70.8 80.23ZM81.87 70.38C84.01 67.19 85.64 63.75 86.75 60.08C87.86 56.4 88.42 52.64 88.41 48.8C88.41 27.32 70.95 9.85 49.48 9.85C46.42 9.84 43.39 10.2 40.41 10.92C37.43 11.63 34.58 12.68 31.85 14.08C32.73 13.05 33.68 12.07 34.67 11.15C35.66 10.22 36.7 9.35 37.79 8.53C38.87 7.71 40 6.96 41.17 6.27C42.34 5.57 43.54 4.94 44.77 4.38C46.01 3.81 47.27 3.31 48.56 2.89C49.85 2.46 51.16 2.1 52.48 1.81C53.81 1.52 55.15 1.3 56.5 1.16C57.85 1.01 59.2 0.94 60.56 0.94C81.5 0.94 98.55 17.99 98.55 38.95C98.55 40.49 98.46 42.03 98.27 43.56C98.08 45.1 97.8 46.61 97.42 48.11C97.05 49.61 96.59 51.08 96.04 52.53C95.49 53.97 94.85 55.37 94.12 56.74C93.4 58.1 92.6 59.42 91.71 60.68C90.83 61.95 89.87 63.16 88.84 64.31C87.81 65.46 86.71 66.54 85.55 67.56C84.38 68.57 83.16 69.51 81.88 70.38L81.87 70.38Z" fill="#191919" fill-opacity="1.000000" fill-rule="nonzero"/>
</svg>
