<svg width="80.000000" height="81.000000" viewBox="0 0 80 81" fill="none" xmlns="http://www.w3.org/2000/svg" xmlns:xlink="http://www.w3.org/1999/xlink">
	<desc>
			Created with Pixso.
	</desc>
	<defs/>
	<path id="Vector" d="M79.79 38.74C79.66 38.68 79.54 38.7 79.44 38.8L67.08 51.16L67.08 26.12C67.08 25.98 67.02 25.88 66.88 25.83C66.75 25.77 66.63 25.79 66.53 25.89L54.17 38.25L54.17 13.21C54.16 13.08 54.09 12.98 53.97 12.94C53.84 12.89 53.73 12.91 53.63 13L41.27 25.35L41.27 0.32C41.27 0.18 41.2 0.08 41.07 0.02C40.94 -0.03 40.82 -0.01 40.72 0.09L0.09 40.74C-0.01 40.84 -0.03 40.96 0.02 41.09C0.08 41.22 0.18 41.29 0.32 41.29L25.34 41.29L13 53.64C12.9 53.75 12.87 53.86 12.93 54C12.98 54.13 13.08 54.2 13.23 54.2L38.25 54.2L25.9 66.55C25.8 66.66 25.78 66.77 25.83 66.91C25.89 67.04 25.98 67.11 26.13 67.11L51.15 67.11L38.8 79.46C38.71 79.57 38.68 79.68 38.74 79.82C38.79 79.95 38.89 80.02 39.03 80.02L79.67 80.02C79.76 80.02 79.84 79.99 79.9 79.92C79.96 79.86 80 79.78 80 79.69L80 39.05C80 38.9 79.93 38.79 79.79 38.74ZM1.1 40.64L40.63 1.1L40.63 26.01L25.99 40.64L1.1 40.64ZM40.63 26.91L40.63 40.64L26.91 40.64L40.63 26.91ZM14.01 53.55L26.26 41.29L40.95 41.29C41.04 41.29 41.12 41.26 41.18 41.19C41.25 41.13 41.28 41.05 41.28 40.96L41.28 26.27L53.53 14.01L53.53 38.91L38.9 53.55L14.01 53.55ZM53.53 39.82L53.53 53.55L39.82 53.55L53.53 39.82ZM26.91 66.46L39.16 54.2L53.86 54.2C53.95 54.2 54.02 54.17 54.09 54.1C54.15 54.04 54.18 53.96 54.18 53.87L54.18 39.17L66.44 26.91L66.44 51.81L51.81 66.46L26.91 66.46ZM66.44 52.73L66.44 66.46L52.72 66.46L66.44 52.73ZM79.34 79.36L39.83 79.36L52.08 67.11L66.76 67.11C66.85 67.11 66.93 67.07 67 67.01C67.06 66.95 67.09 66.87 67.09 66.78L67.09 52.08L79.34 39.82L79.34 79.36Z" fill="#191919" fill-opacity="1.000000" fill-rule="nonzero"/>
</svg>
