<svg width="91.000000" height="80.000000" viewBox="0 0 91 80" fill="none" xmlns="http://www.w3.org/2000/svg" xmlns:xlink="http://www.w3.org/1999/xlink">
	<desc>
			Created with Pixso.
	</desc>
	<defs/>
	<path id="Vector" d="M1.52 79.89L-0.73 79.89L-0.73 71.07L1.52 71.07L1.52 79.89Z" fill="#191919" fill-opacity="1.000000" fill-rule="nonzero"/>
	<path id="Vector" d="M14.32 79.89L12.34 79.89L8.28 74.47L8.28 79.89L6.18 79.89L6.18 71.07L8.16 71.07L12.23 76.51L12.23 71.07L14.32 71.07L14.32 79.89Z" fill="#191919" fill-opacity="1.000000" fill-rule="nonzero"/>
	<path id="Vector" d="M34.49 79.89L32.51 79.89L32.5 74.16L30.39 79.01L28.92 79.01L26.81 74.16L26.81 79.89L24.8 79.89L24.8 71.06L27.26 71.06L29.65 76.31L32.05 71.06L34.49 71.06L34.49 79.89Z" fill="#191919" fill-opacity="1.000000" fill-rule="nonzero"/>
	<path id="Vector" d="M43.35 70.99C44.72 70.99 45.85 71.42 46.76 72.28C47.67 73.13 48.13 74.19 48.13 75.47C48.13 76.76 47.67 77.83 46.76 78.7C45.85 79.57 44.71 80 43.34 80C41.98 80 40.85 79.57 39.95 78.7C39.04 77.84 38.59 76.76 38.59 75.47C38.59 74.18 39.04 73.12 39.95 72.27C40.85 71.42 41.99 70.99 43.35 70.99ZM43.37 72.87C42.68 72.87 42.1 73.12 41.61 73.63C41.12 74.12 40.88 74.74 40.88 75.48C40.88 76.22 41.12 76.84 41.62 77.35C42.11 77.86 42.69 78.12 43.37 78.12C44.05 78.12 44.63 77.86 45.1 77.35C45.57 76.84 45.82 76.22 45.82 75.48C45.82 74.74 45.57 74.12 45.1 73.63C44.63 73.12 44.05 72.87 43.37 72.87Z" fill="#191919" fill-opacity="1.000000" fill-rule="nonzero"/>
	<path id="Vector" d="M58.95 72.87L56.29 72.87L56.29 79.89L54.04 79.89L54.04 72.87L51.41 72.87L51.41 71.06L58.95 71.06L58.95 72.87Z" fill="#191919" fill-opacity="1.000000" fill-rule="nonzero"/>
	<path id="Vector" d="M65.04 79.89L62.8 79.89L62.8 71.07L65.04 71.07L65.04 79.89Z" fill="#191919" fill-opacity="1.000000" fill-rule="nonzero"/>
	<path id="Vector" d="M73.89 70.99C75.26 70.99 76.39 71.42 77.3 72.28C78.21 73.13 78.67 74.19 78.67 75.47C78.67 76.76 78.21 77.83 77.3 78.7C76.39 79.57 75.25 80 73.88 80C72.52 80 71.39 79.57 70.49 78.7C69.58 77.84 69.13 76.76 69.13 75.47C69.13 74.18 69.58 73.12 70.49 72.27C71.39 71.42 72.53 70.99 73.89 70.99ZM73.91 72.87C73.22 72.87 72.64 73.12 72.15 73.63C71.66 74.12 71.42 74.74 71.42 75.48C71.42 76.22 71.66 76.84 72.16 77.35C72.65 77.86 73.23 78.12 73.91 78.12C74.59 78.12 75.17 77.86 75.64 77.35C76.11 76.84 76.36 76.22 76.36 75.48C76.36 74.74 76.11 74.12 75.64 73.63C75.17 73.12 74.59 72.87 73.91 72.87Z" fill="#191919" fill-opacity="1.000000" fill-rule="nonzero"/>
	<path id="Vector" d="M90.89 79.89L88.9 79.89L84.85 74.47L84.85 79.89L82.74 79.89L82.74 71.07L84.72 71.07L88.79 76.51L88.79 71.07L90.89 71.07L90.89 79.89Z" fill="#191919" fill-opacity="1.000000" fill-rule="nonzero"/>
	<path id="Vector" d="M64.04 56.11L17.07 56.11L17.07 9.1L64.04 9.1L64.04 56.11ZM17.82 55.36L63.29 55.36L63.29 9.85L17.82 9.85L17.82 55.36Z" fill="#191919" fill-opacity="1.000000" fill-rule="nonzero"/>
	<path id="Vector" d="M68.29 51.36L21.32 51.36L21.32 4.35L68.29 4.35L68.29 51.36ZM22.07 50.61L67.54 50.61L67.54 5.1L22.07 5.1L22.07 50.61Z" fill="#191919" fill-opacity="1.000000" fill-rule="nonzero"/>
	<path id="Vector" d="M72.78 47.01L25.82 47.01L25.82 0L72.78 0L72.78 47.01ZM26.57 46.26L72.03 46.26L72.03 0.75L26.57 0.75L26.57 46.26Z" fill="#191919" fill-opacity="1.000000" fill-rule="nonzero"/>
	<path id="Vector" d="M32.14 30.61L42.52 30.61L42.52 41L32.14 41L32.14 30.61Z" fill="#191919" fill-opacity="1.000000" fill-rule="nonzero"/>
</svg>
