<svg width="100.000000" height="101.000000" viewBox="0 0 100 101" fill="none" xmlns="http://www.w3.org/2000/svg" xmlns:xlink="http://www.w3.org/1999/xlink">
	<desc>
			Created with Pixso.
	</desc>
	<defs/>
	<path id="Vector" d="M99.24 48.42C99.08 48.35 98.93 48.38 98.8 48.51L83.36 63.95L83.36 32.66C83.36 32.48 83.27 32.35 83.1 32.28C82.94 32.21 82.79 32.24 82.66 32.37L67.22 47.81L67.22 16.52C67.2 16.35 67.12 16.23 66.96 16.17C66.8 16.11 66.66 16.14 66.54 16.25L51.09 31.69L51.09 0.4C51.09 0.22 51 0.1 50.84 0.03C50.68 -0.04 50.53 -0.01 50.4 0.11L-0.39 50.92C-0.51 51.05 -0.54 51.2 -0.47 51.36C-0.4 51.52 -0.28 51.61 -0.1 51.61L31.18 51.61L15.75 67.05C15.62 67.18 15.59 67.33 15.66 67.5C15.73 67.66 15.86 67.75 16.04 67.75L47.31 67.75L31.88 83.19C31.75 83.32 31.72 83.47 31.79 83.64C31.86 83.8 31.98 83.89 32.16 83.89L63.44 83.89L48.01 99.33C47.88 99.46 47.85 99.61 47.92 99.77C47.99 99.94 48.11 100.02 48.29 100.02L99.09 100.02C99.2 100.02 99.3 99.98 99.37 99.91C99.46 99.83 99.49 99.73 99.49 99.62L99.49 48.81C99.5 48.62 99.42 48.49 99.24 48.42ZM0.88 50.8L50.29 1.38L50.29 32.51L31.99 50.8L0.88 50.8ZM50.29 33.64L50.29 50.8L33.14 50.8L50.29 33.64ZM17.01 66.94L32.33 51.61L50.69 51.61C50.81 51.61 50.9 51.57 50.98 51.49C51.06 51.41 51.1 51.32 51.1 51.2L51.1 32.84L66.42 17.51L66.42 48.63L48.13 66.94L17.01 66.94ZM66.42 49.78L66.42 66.93L49.27 66.93L66.42 49.78ZM33.14 83.07L48.46 67.75L66.83 67.75C66.94 67.75 67.03 67.71 67.11 67.63C67.19 67.55 67.23 67.46 67.23 67.34L67.23 48.97L82.55 33.64L82.55 64.76L64.26 83.07L33.14 83.07ZM82.55 65.92L82.55 83.07L65.4 83.07L82.55 65.92ZM98.68 99.2L49.28 99.2L64.6 83.88L82.96 83.88C83.07 83.88 83.16 83.84 83.25 83.76C83.32 83.68 83.36 83.59 83.36 83.48L83.36 65.1L98.68 49.78L98.68 99.2Z" fill="#191919" fill-opacity="1.000000" fill-rule="nonzero"/>
</svg>
