<svg width="62.000000" height="80.000000" viewBox="0 0 62 80" fill="none" xmlns="http://www.w3.org/2000/svg" xmlns:xlink="http://www.w3.org/1999/xlink">
	<desc>
			Created with Pixso.
	</desc>
	<defs/>
	<path id="Vector" d="M61.28 40.12C61.28 40.11 61.28 40.11 61.28 40.1C61.29 40.07 61.29 40.04 61.29 40C61.29 39.97 61.29 39.93 61.28 39.9C61.28 39.9 61.28 39.89 61.28 39.88C61.26 39.85 61.25 39.82 61.23 39.8L30.92 0.12L30.91 0.11C30.9 0.1 30.88 0.08 30.87 0.07C30.8 0.02 30.73 0 30.65 0C30.57 0 30.5 0.02 30.43 0.07C30.42 0.08 30.41 0.1 30.39 0.11L30.38 0.12L0.07 39.79C0.04 39.82 0.03 39.85 0.02 39.88C0.02 39.88 0.02 39.89 0.02 39.9C0.01 39.93 0.01 39.96 0.01 39.99L0 39.99C0 40.03 0 40.06 0.01 40.09C0.01 40.1 0.01 40.11 0.01 40.11C0.02 40.14 0.04 40.17 0.06 40.2L30.36 79.86C30.36 79.87 30.36 79.87 30.37 79.88L30.4 79.91L30.42 79.93C30.44 79.94 30.45 79.95 30.46 79.95L30.49 79.97L30.54 79.99L30.56 79.99C30.61 80 30.66 80 30.71 79.99L30.73 79.99L30.78 79.97L30.8 79.95C30.81 79.95 30.83 79.94 30.84 79.93L30.86 79.91L30.9 79.88C30.9 79.87 30.9 79.87 30.91 79.86L61.21 40.2C61.24 40.18 61.26 40.15 61.28 40.12ZM30.99 31.63L54.12 31.63L57.46 35.99L30.99 35.99L30.99 31.63ZM30.99 30.94L30.99 26.58L50.26 26.58L53.59 30.94L30.99 30.94ZM30.99 25.89L30.99 21.52L46.4 21.52L49.73 25.88L30.99 25.89ZM30.99 20.83L30.99 16.47L42.53 16.47L45.87 20.83L30.99 20.83ZM30.99 15.77L30.99 11.41L38.67 11.41L42 15.78L30.99 15.77ZM30.99 10.72L30.99 6.36L34.81 6.36L38.14 10.72L30.99 10.72ZM30.99 5.66L30.99 1.36L34.28 5.66L30.99 5.66ZM30.3 39.65L1.04 39.65L30.3 1.36L30.3 39.65ZM30.99 40.35L60.25 40.35L30.99 78.64L30.99 40.35ZM30.99 39.65L30.99 36.69L57.99 36.69L60.25 39.65L30.99 39.65Z" fill="#191919" fill-opacity="1.000000" fill-rule="evenodd"/>
</svg>
