<svg width="92.000000" height="80.000000" viewBox="0 0 92 80" fill="none" xmlns="http://www.w3.org/2000/svg" xmlns:xlink="http://www.w3.org/1999/xlink">
	<desc>
			Created with Pixso.
	</desc>
	<defs/>
	<path id="Vector" d="M45.21 1.19C33.92 1.19 24.74 10.37 24.74 21.66C24.74 32.95 33.92 42.13 45.21 42.13C56.5 42.13 65.68 32.95 65.68 21.66C65.68 10.37 56.5 1.19 45.21 1.19ZM45.21 43.33C33.26 43.33 23.54 33.61 23.54 21.66C23.54 9.72 33.26 0 45.21 0C57.16 0 66.88 9.72 66.88 21.66C66.88 33.61 57.16 43.33 45.21 43.33Z" fill="#191919" fill-opacity="1.000000" fill-rule="nonzero"/>
	<path id="Vector" d="M45.21 3.82C35.37 3.82 27.37 11.83 27.37 21.66C27.37 31.5 35.37 39.5 45.21 39.5C55.04 39.5 63.05 31.5 63.05 21.66C63.05 11.83 55.04 3.82 45.21 3.82ZM45.21 40.69C34.72 40.69 26.18 32.15 26.18 21.66C26.18 11.17 34.72 2.63 45.21 2.63C55.7 2.63 64.24 11.17 64.24 21.66C64.24 32.15 55.7 40.69 45.21 40.69Z" fill="#191919" fill-opacity="1.000000" fill-rule="nonzero"/>
	<path id="Vector" d="M45.21 6.46C36.83 6.46 30.01 13.28 30.01 21.66C30.01 30.04 36.83 36.86 45.21 36.86C53.59 36.86 60.41 30.04 60.41 21.66C60.41 13.28 53.59 6.46 45.21 6.46ZM45.21 38.06C36.17 38.06 28.81 30.7 28.81 21.66C28.81 12.62 36.17 5.26 45.21 5.26C54.25 5.26 61.61 12.62 61.61 21.66C61.61 30.7 54.25 38.06 45.21 38.06Z" fill="#191919" fill-opacity="1.000000" fill-rule="nonzero"/>
	<path id="Vector" d="M45.21 9.09C38.28 9.09 32.64 14.73 32.64 21.66C32.64 28.59 38.28 34.23 45.21 34.23C52.14 34.23 57.78 28.59 57.78 21.66C57.78 14.73 52.14 9.09 45.21 9.09ZM45.21 35.43C37.62 35.43 31.45 29.25 31.45 21.66C31.45 14.07 37.62 7.9 45.21 7.9C52.8 7.9 58.97 14.07 58.97 21.66C58.97 29.25 52.8 35.43 45.21 35.43Z" fill="#191919" fill-opacity="1.000000" fill-rule="nonzero"/>
	<path id="Vector" d="M45.21 11.72C39.73 11.72 35.27 16.18 35.27 21.66C35.27 27.14 39.73 31.6 45.21 31.6C50.69 31.6 55.15 27.14 55.15 21.66C55.15 16.18 50.69 11.72 45.21 11.72ZM45.21 32.79C39.07 32.79 34.08 27.8 34.08 21.66C34.08 15.52 39.07 10.53 45.21 10.53C51.35 10.53 56.34 15.52 56.34 21.66C56.34 27.8 51.35 32.79 45.21 32.79Z" fill="#191919" fill-opacity="1.000000" fill-rule="nonzero"/>
	<path id="Vector" d="M45.21 14.36C41.18 14.36 37.91 17.63 37.91 21.66C37.91 25.69 41.18 28.96 45.21 28.96C49.24 28.96 52.51 25.69 52.51 21.66C52.51 17.63 49.24 14.36 45.21 14.36ZM45.21 30.16C40.52 30.16 36.71 26.35 36.71 21.66C36.71 16.98 40.52 13.16 45.21 13.16C49.9 13.16 53.71 16.98 53.71 21.66C53.71 26.35 49.9 30.16 45.21 30.16Z" fill="#191919" fill-opacity="1.000000" fill-rule="nonzero"/>
	<path id="Vector" d="M45.21 16.99C42.63 16.99 40.54 19.08 40.54 21.66C40.54 24.23 42.63 26.33 45.21 26.33C47.79 26.33 49.88 24.23 49.88 21.66C49.88 19.08 47.79 16.99 45.21 16.99ZM45.21 27.52C41.98 27.52 39.35 24.89 39.35 21.66C39.35 18.43 41.98 15.8 45.21 15.8C48.44 15.8 51.07 18.43 51.07 21.66C51.07 24.89 48.44 27.52 45.21 27.52Z" fill="#191919" fill-opacity="1.000000" fill-rule="nonzero"/>
	<path id="Vector" d="M45.21 19.62C44.09 19.62 43.17 20.54 43.17 21.66C43.17 22.78 44.09 23.7 45.21 23.7C46.33 23.7 47.25 22.78 47.25 21.66C47.25 20.54 46.33 19.62 45.21 19.62ZM45.21 24.89C43.43 24.89 41.98 23.44 41.98 21.66C41.98 19.88 43.43 18.43 45.21 18.43C46.99 18.43 48.44 19.88 48.44 21.66C48.44 23.44 46.99 24.89 45.21 24.89Z" fill="#191919" fill-opacity="1.000000" fill-rule="nonzero"/>
	<path id="Vector" d="M5.06 65.48C2.95 65.48 1.4 65.04 0.41 64.18C-0.47 63.41 -0.91 62.37 -0.91 61.04C-0.91 59.72 -0.47 58.67 0.41 57.9C1.4 57.04 2.95 56.61 5.06 56.61C6.29 56.61 7.32 56.75 8.12 57.03C8.93 57.31 9.56 57.7 10 58.19C10.45 58.68 10.75 59.24 10.9 59.88L7.13 59.88C6.76 59.22 6.07 58.89 5.06 58.89C4.19 58.89 3.56 59.14 3.15 59.63C2.83 60.03 2.67 60.5 2.67 61.04C2.67 61.59 2.83 62.05 3.15 62.45C3.56 62.95 4.19 63.19 5.06 63.19C6.07 63.19 6.76 62.86 7.13 62.2L10.9 62.2C10.75 62.84 10.45 63.4 10 63.89C9.56 64.38 8.93 64.77 8.12 65.06C7.32 65.33 6.29 65.48 5.06 65.48Z" fill="#191919" fill-opacity="1.000000" fill-rule="nonzero"/>
	<path id="Vector" d="M23.95 65.29L20.57 65.29C20.41 65.08 20.3 64.8 20.24 64.47C20.19 64.22 20.11 63.97 20 63.72C19.88 63.47 19.69 63.26 19.42 63.1C19.15 62.94 18.75 62.85 18.21 62.83L15.89 62.83L15.89 65.29L12.31 65.29L12.31 56.77L18.13 56.77C19.52 56.77 20.64 56.88 21.49 57.08C22.35 57.29 22.97 57.62 23.36 58.06C23.75 58.51 23.95 59.09 23.95 59.81C23.95 60.4 23.81 60.91 23.54 61.32C23.27 61.73 22.85 62.05 22.26 62.28C22.82 62.52 23.19 62.8 23.36 63.12C23.53 63.45 23.63 63.81 23.67 64.2C23.71 64.55 23.8 64.91 23.95 65.29ZM15.89 60.73L17.94 60.72C18.51 60.72 18.95 60.7 19.28 60.65C19.61 60.6 19.85 60.53 20 60.44C20.16 60.35 20.26 60.25 20.3 60.15C20.35 60.04 20.38 59.92 20.38 59.81C20.38 59.69 20.35 59.58 20.3 59.47C20.26 59.35 20.16 59.26 20 59.16C19.85 59.08 19.61 59.01 19.28 58.96C18.95 58.91 18.51 58.88 17.94 58.88L15.89 58.88L15.89 60.73Z" fill="#191919" fill-opacity="1.000000" fill-rule="nonzero"/>
	<path id="Vector" d="M35.63 65.29L25.37 65.29L25.37 56.77L35.16 56.77L35.16 58.88L28.95 58.88L28.95 60.22L34.2 60.22L34.2 61.86L28.95 61.86L28.95 63.19L35.63 63.19L35.63 65.29Z" fill="#191919" fill-opacity="1.000000" fill-rule="nonzero"/>
	<path id="Vector" d="M50.42 65.29L46.79 65.29L45.99 63.9L40.61 63.9L39.81 65.29L36.19 65.29L41.64 56.77L44.96 56.77L50.42 65.29ZM44.79 61.79L43.31 59.2L41.82 61.79L44.79 61.79Z" fill="#191919" fill-opacity="1.000000" fill-rule="nonzero"/>
	<path id="Vector" d="M57.76 65.29L54.19 65.29L54.19 58.88L50.85 58.88L50.85 56.77L61.11 56.77L61.11 58.88L57.76 58.88L57.76 65.29Z" fill="#191919" fill-opacity="1.000000" fill-rule="nonzero"/>
	<path id="Vector" d="M65.98 65.29L62.4 65.29L62.4 56.77L65.98 56.77L65.98 65.29Z" fill="#191919" fill-opacity="1.000000" fill-rule="nonzero"/>
	<path id="Vector" d="M75.11 65.29L71.79 65.29L67.01 56.77L70.64 56.77L73.45 62.86L76.26 56.77L79.89 56.77L75.11 65.29Z" fill="#191919" fill-opacity="1.000000" fill-rule="nonzero"/>
	<path id="Vector" d="M91.18 65.29L80.92 65.29L80.92 56.77L90.71 56.77L90.71 58.88L84.5 58.88L84.5 60.22L89.75 60.22L89.75 61.86L84.5 61.86L84.5 63.19L91.18 63.19L91.18 65.29Z" fill="#191919" fill-opacity="1.000000" fill-rule="nonzero"/>
	<path id="Vector" d="M17.66 80C16.51 80 15.58 79.87 14.87 79.62C14.17 79.38 13.63 79.03 13.26 78.6C12.89 78.17 12.65 77.67 12.52 77.1L16.32 77.1C16.6 77.51 17.05 77.71 17.66 77.71C18.27 77.71 18.72 77.51 19.01 77.1C19.03 77.06 19.04 77.03 19.04 76.99C19.04 76.89 18.9 76.81 18.61 76.76C18.33 76.7 17.91 76.66 17.34 76.64C16.63 76.61 15.89 76.53 15.11 76.41C13.37 76.14 12.5 75.44 12.5 74.31C12.5 74.21 12.51 74.12 12.52 74.01C12.65 73.44 12.89 72.95 13.26 72.51C13.63 72.08 14.17 71.74 14.87 71.49C15.58 71.24 16.51 71.12 17.66 71.12C18.81 71.12 19.74 71.24 20.44 71.49C21.15 71.74 21.68 72.08 22.05 72.51C22.42 72.95 22.67 73.44 22.8 74.01L19.01 74.01C18.72 73.61 18.27 73.41 17.66 73.41C17.05 73.41 16.6 73.61 16.32 74.01C16.3 74.04 16.29 74.07 16.29 74.1C16.29 74.19 16.42 74.26 16.69 74.31C16.97 74.36 17.37 74.4 17.9 74.43C18.42 74.46 18.99 74.51 19.58 74.59C20.18 74.66 20.74 74.78 21.26 74.95C21.79 75.12 22.19 75.39 22.48 75.73C22.71 76 22.83 76.33 22.83 76.74C22.83 76.86 22.82 76.98 22.8 77.1C22.67 77.67 22.42 78.17 22.05 78.6C21.68 79.03 21.15 79.38 20.44 79.62C19.74 79.87 18.81 80 17.66 80Z" fill="#191919" fill-opacity="1.000000" fill-rule="nonzero"/>
	<path id="Vector" d="M30.57 79.81L26.99 79.81L26.99 73.4L23.65 73.4L23.65 71.29L33.91 71.29L33.91 73.4L30.57 73.4L30.57 79.81Z" fill="#191919" fill-opacity="1.000000" fill-rule="nonzero"/>
	<path id="Vector" d="M40.25 80C38.17 80 36.71 79.57 35.86 78.7C35.15 77.98 34.79 76.93 34.79 75.56L34.79 71.29L38.36 71.29L38.36 75.56C38.36 76.15 38.46 76.62 38.66 76.97C38.95 77.46 39.48 77.71 40.25 77.71C41.02 77.71 41.55 77.46 41.83 76.97C42.03 76.61 42.13 76.14 42.13 75.56L42.13 71.29L45.71 71.29L45.71 75.61C45.71 76.94 45.36 77.98 44.65 78.7C43.8 79.57 42.33 80 40.25 80Z" fill="#191919" fill-opacity="1.000000" fill-rule="nonzero"/>
	<path id="Vector" d="M52.89 79.81L47.19 79.81L47.19 71.29L52.89 71.29C55.22 71.29 56.9 71.62 57.92 72.27C58.74 72.79 59.21 73.51 59.33 74.42C59.38 74.81 59.41 75.19 59.41 75.55C59.41 75.91 59.38 76.29 59.33 76.68C59.28 77.08 59.15 77.46 58.93 77.83C58.72 78.2 58.38 78.54 57.92 78.83C57.45 79.13 56.81 79.37 56 79.54C55.2 79.72 54.16 79.81 52.89 79.81ZM52.55 77.71C54.37 77.71 55.4 77.25 55.64 76.33C55.7 76.07 55.73 75.81 55.73 75.55C55.73 75.3 55.7 75.04 55.63 74.78C55.57 74.53 55.43 74.29 55.22 74.09C55.01 73.88 54.69 73.71 54.26 73.59C53.84 73.46 53.27 73.4 52.55 73.4L50.77 73.4L50.77 77.71L52.55 77.71Z" fill="#191919" fill-opacity="1.000000" fill-rule="nonzero"/>
	<path id="Vector" d="M64.4 79.81L60.82 79.81L60.82 71.29L64.4 71.29L64.4 79.81Z" fill="#191919" fill-opacity="1.000000" fill-rule="nonzero"/>
	<path id="Vector" d="M71.79 80C69.69 80 68.14 79.56 67.14 78.7C66.26 77.93 65.82 76.88 65.82 75.55C65.82 74.23 66.26 73.19 67.14 72.42C68.14 71.55 69.69 71.12 71.79 71.12C73.9 71.12 75.45 71.55 76.44 72.42C77.32 73.19 77.76 74.23 77.76 75.55C77.76 76.88 77.32 77.93 76.44 78.7C75.45 79.56 73.9 80 71.79 80ZM71.79 77.71C72.65 77.71 73.29 77.46 73.69 76.97C74.01 76.57 74.18 76.1 74.18 75.55C74.18 75.01 74.01 74.54 73.69 74.14C73.29 73.65 72.65 73.4 71.79 73.4C70.93 73.4 70.29 73.65 69.88 74.14C69.56 74.54 69.4 75.01 69.4 75.55C69.4 76.1 69.56 76.57 69.88 76.97C70.29 77.46 70.93 77.71 71.79 77.71Z" fill="#191919" fill-opacity="1.000000" fill-rule="nonzero"/>
</svg>
