<svg width="100.000000" height="100.000000" viewBox="0 0 100 100" fill="none" xmlns="http://www.w3.org/2000/svg" xmlns:xlink="http://www.w3.org/1999/xlink">
	<desc>
			Created with Pixso.
	</desc>
	<defs/>
	<path id="Vector" d="M99.03 49.54C95.81 49.54 92.62 49.24 89.45 48.61C86.29 47.99 83.22 47.06 80.24 45.83C77.26 44.59 74.44 43.08 71.76 41.28C69.08 39.49 66.6 37.45 64.33 35.16C62.04 32.89 60 30.41 58.21 27.73C56.41 25.05 54.9 22.23 53.67 19.25C52.43 16.27 51.51 13.2 50.88 10.04C50.26 6.88 49.95 3.68 49.96 0.46C49.96 0.33 49.91 0.22 49.82 0.13C49.73 0.04 49.62 0 49.5 0C49.37 0 49.26 0.04 49.17 0.13C49.08 0.22 49.03 0.33 49.03 0.46C49.04 3.68 48.73 6.88 48.11 10.04C47.49 13.2 46.56 16.27 45.32 19.25C44.09 22.23 42.58 25.05 40.78 27.73C38.99 30.41 36.95 32.89 34.66 35.16C32.39 37.45 29.91 39.49 27.23 41.28C24.55 43.08 21.73 44.59 18.75 45.83C15.77 47.06 12.7 47.99 9.54 48.61C6.37 49.24 3.18 49.54 -0.04 49.54C-0.17 49.54 -0.28 49.58 -0.37 49.67C-0.46 49.76 -0.5 49.87 -0.5 50C-0.5 50.12 -0.46 50.23 -0.37 50.32C-0.28 50.41 -0.17 50.46 -0.04 50.46C3.18 50.45 6.37 50.76 9.54 51.38C12.7 52.01 15.77 52.94 18.75 54.17C21.73 55.4 24.55 56.92 27.23 58.71C29.91 60.51 32.39 62.54 34.66 64.83C36.95 67.1 38.99 69.58 40.78 72.26C42.58 74.94 44.09 77.77 45.32 80.74C46.56 83.72 47.49 86.79 48.11 89.96C48.73 93.12 49.04 96.31 49.03 99.54C49.03 99.66 49.08 99.77 49.17 99.86C49.26 99.95 49.37 100 49.5 100C49.62 100 49.73 99.95 49.82 99.86C49.91 99.77 49.96 99.66 49.96 99.54C49.96 72.47 71.97 50.46 99.03 50.46C99.16 50.46 99.27 50.41 99.36 50.32C99.45 50.23 99.5 50.12 99.5 50C99.5 49.87 99.45 49.76 99.36 49.67C99.27 49.58 99.16 49.54 99.03 49.54ZM49.5 92.72C49.13 90.03 48.55 87.39 47.76 84.8C46.96 82.21 45.96 79.7 44.76 77.28C43.55 74.85 42.15 72.54 40.57 70.34C38.98 68.14 37.23 66.09 35.31 64.18C33.4 62.26 31.35 60.51 29.15 58.92C26.96 57.34 24.65 55.94 22.22 54.74C19.8 53.53 17.29 52.53 14.7 51.74C12.12 50.94 9.48 50.36 6.79 50C9.48 49.63 12.12 49.05 14.7 48.26C17.29 47.46 19.8 46.46 22.22 45.26C24.65 44.05 26.96 42.65 29.15 41.07C31.35 39.48 33.4 37.73 35.31 35.81C37.23 33.9 38.98 31.85 40.57 29.65C42.15 27.46 43.55 25.15 44.75 22.72C45.96 20.3 46.96 17.79 47.76 15.2C48.55 12.61 49.13 9.98 49.5 7.3C49.86 9.98 50.44 12.61 51.23 15.2C52.03 17.79 53.03 20.3 54.24 22.72C55.44 25.15 56.84 27.46 58.42 29.65C60.01 31.85 61.76 33.9 63.68 35.81C65.59 37.73 67.64 39.49 69.84 41.07C72.04 42.66 74.35 44.05 76.78 45.26C79.2 46.46 81.71 47.46 84.3 48.26C86.89 49.05 89.53 49.63 92.21 50C70.09 53.03 52.53 70.59 49.5 92.72Z" fill="#191919" fill-opacity="1.000000" fill-rule="nonzero"/>
</svg>
