<svg width="139.000000" height="50.000000" viewBox="0 0 139 50" fill="none" xmlns="http://www.w3.org/2000/svg" xmlns:xlink="http://www.w3.org/1999/xlink">
	<desc>
			Created with Pixso.
	</desc>
	<defs/>
	<path id="Vector" d="M41.85 50L0 50L0 8.11L41.85 8.11L41.85 50ZM0.66 49.33L41.18 49.33L41.18 8.78L0.66 8.78L0.66 49.33Z" fill="#191919" fill-opacity="1.000000" fill-rule="nonzero"/>
	<path id="Vector" d="M45.63 45.76L3.78 45.76L3.78 3.87L45.63 3.87L45.63 45.76ZM4.45 45.09L44.96 45.09L44.96 4.54L4.45 4.54L4.45 45.09Z" fill="#191919" fill-opacity="1.000000" fill-rule="nonzero"/>
	<path id="Vector" d="M49.64 41.89L7.79 41.89L7.79 0L49.64 0L49.64 41.89ZM8.46 41.22L48.97 41.22L48.97 0.66L8.46 0.66L8.46 41.22Z" fill="#191919" fill-opacity="1.000000" fill-rule="nonzero"/>
	<path id="Vector" d="M13.42 27.27L22.67 27.27L22.67 36.53L13.42 36.53L13.42 27.27Z" fill="#191919" fill-opacity="1.000000" fill-rule="nonzero"/>
	<path id="Fylla" d="M77.95 17.21L77.95 19.27L67.94 19.27L67.94 24.12L76.13 24.12L76.13 26.14L67.94 26.14L67.94 32.78L65.64 32.78L65.64 17.21L77.95 17.21ZM93.31 17.21L87.38 27.58L87.38 32.78L85.08 32.78L85.08 27.58L79.15 17.21L81.79 17.21L86.28 25.3L90.67 17.21L93.31 17.21ZM98.06 30.72L98.06 17.21L95.75 17.21L95.75 32.78L107.23 32.78L107.23 30.72L98.06 30.72ZM112.61 17.21L112.61 30.72L121.78 30.72L121.78 32.78L110.31 32.78L110.31 17.21L112.61 17.21ZM129.78 17.21L123.42 32.78L125.9 32.78L127.42 28.92L134.61 28.92L136.14 32.78L138.64 32.78L132.23 17.21L129.78 17.21ZM133.8 26.85L131.01 19.81L128.23 26.85L133.8 26.85Z" fill="#191919" fill-opacity="1.000000" fill-rule="evenodd"/>
</svg>
